<svg width="44" height="44" viewBox="0 0 44 44" fill="none" xmlns="http://www.w3.org/2000/svg">
<g clip-path="url(#clip0)">
<path d="M21.9658 0C14.8293 0 9.02344 5.80582 9.02344 12.9423V31.0577C9.02344 38.1942 14.8293 44 21.9658 44C29.1023 44 34.9081 38.1942 34.9081 31.0577V12.9423C34.9081 5.80582 29.1023 0 21.9658 0ZM32.2682 31.0577C32.2682 36.7383 27.6464 41.3601 21.9658 41.3601C16.2852 41.3601 11.6633 36.7383 11.6633 31.0577V12.9423C11.6633 7.26172 16.2852 2.63989 21.9658 2.63989C27.6464 2.63989 32.2682 7.26172 32.2682 12.9423V31.0577Z" fill="white"/>
<path d="M21.9659 8.75293C21.2368 8.75293 20.646 9.34375 20.646 10.0729V16.1483C20.646 16.877 21.2368 17.4682 21.9659 17.4682C22.6947 17.4682 23.2859 16.877 23.2859 16.1483V10.0729C23.2859 9.34375 22.6951 8.75293 21.9659 8.75293Z" fill="white"/>
</g>
<defs>
<clipPath id="clip0">
<rect width="44" height="44" fill="white"/>
</clipPath>
</defs>
</svg>
