<svg width="18" height="18" viewBox="0 0 18 18" fill="none" xmlns="http://www.w3.org/2000/svg">
<path fill-rule="evenodd" clip-rule="evenodd" d="M15.2502 17.125H15.1439C2.86265 16.4188 1.1189 6.05626 0.875153 2.89376C0.835038 2.37208 1.01473 1.85736 1.3708 1.47399C1.72687 1.09062 2.22693 0.873468 2.75015 0.875008H6.0439C6.55616 0.874512 7.01687 1.18661 7.2064 1.66251L8.1564 4.00001C8.34338 4.46447 8.23517 4.9957 7.8814 5.35001L6.55015 6.69376C6.9744 9.11524 8.8673 11.0131 11.2877 11.4438L12.6439 10.1C13.0036 9.75012 13.5376 9.64921 14.0002 9.84376L16.3564 10.7875C16.8249 10.9829 17.1287 11.4424 17.1252 11.95V15.25C17.1252 16.2855 16.2857 17.125 15.2502 17.125ZM2.75012 2.12501C2.57533 2.12445 2.40828 2.19712 2.28952 2.32538C2.17076 2.45364 2.11114 2.62577 2.12512 2.80001C2.41262 6.50001 4.25637 15.25 15.2126 15.875C15.3848 15.8854 15.5536 15.8241 15.679 15.7058C15.8045 15.5874 15.8754 15.4225 15.8751 15.25V11.95L13.5189 11.0063L11.7251 12.7875L11.4251 12.75C5.98762 12.0688 5.25012 6.63126 5.25012 6.57501L5.21262 6.27501L6.98762 4.48126L6.05012 2.12501H2.75012Z" fill="black"/>
</svg>
