<svg width="40" height="40" viewBox="0 0 40 40" fill="none" xmlns="http://www.w3.org/2000/svg">
<path d="M10.105 14.5261C10.105 14.8749 10.3877 15.1577 10.7365 15.1577H16.6313C16.9802 15.1577 17.2629 14.8748 17.2629 14.5261C17.2629 14.1773 16.9801 13.8945 16.6313 13.8945H10.7365C10.3877 13.8945 10.105 14.1773 10.105 14.5261Z" fill="#293AA4"/>
<path d="M7.36838 12.6313H9.8947C10.2436 12.6313 10.5263 12.3485 10.5263 11.9997C10.5263 11.6509 10.2435 11.3682 9.8947 11.3682H7.36838C7.01947 11.3682 6.73682 11.651 6.73682 11.9997C6.73682 12.3485 7.01947 12.6313 7.36838 12.6313Z" fill="#293AA4"/>
<path d="M18.5262 4.68244V13.684C18.5262 14.4966 19.1874 15.1577 19.9999 15.1577H28.421C29.2336 15.1577 29.8946 14.4965 29.8946 13.684V4.68244L33.078 1.49908C33.3246 1.25252 33.3246 0.852598 33.078 0.605957C32.8314 0.359316 32.4315 0.359316 32.1848 0.605957L29.0014 3.78939H19.4193L16.2359 0.605879C15.9893 0.359238 15.5894 0.359238 15.3427 0.605879C15.0961 0.852441 15.0961 1.25236 15.3427 1.499L18.5262 4.68244ZM19.7893 5.05252H28.6314V13.6841C28.6314 13.8001 28.5371 13.8946 28.4209 13.8946H19.9999C19.8838 13.8946 19.7893 13.8002 19.7893 13.6841V5.05252Z" fill="#293AA4"/>
<path d="M14.1052 12.6313H16.6315C16.9804 12.6313 17.2631 12.3485 17.2631 11.9997C17.2631 11.6509 16.9804 11.3682 16.6315 11.3682H14.1052C13.7563 11.3682 13.4736 11.651 13.4736 11.9997C13.4736 12.3485 13.7564 12.6313 14.1052 12.6313Z" fill="#293AA4"/>
<path d="M37.4738 21.6841C37.4738 20.1751 36.246 18.9473 34.7369 18.9473C33.2277 18.9473 32 20.1751 32 21.6841C32 23.1932 33.2277 24.421 34.7369 24.421C36.246 24.4209 37.4738 23.1932 37.4738 21.6841ZM33.2632 21.6841C33.2632 20.8715 33.9244 20.2105 34.7369 20.2105C35.5495 20.2105 36.2105 20.8716 36.2105 21.6841C36.2105 22.4967 35.5494 23.1578 34.7369 23.1578C33.9244 23.1578 33.2632 22.4967 33.2632 21.6841Z" fill="#293AA4"/>
<path d="M4.63135 21.5993V21.7678C4.63135 22.1166 4.914 22.3993 5.26291 22.3993C5.61182 22.3993 5.89448 22.1165 5.89448 21.7678V21.5993C5.89448 21.2505 5.61182 20.9678 5.26291 20.9678C4.91408 20.9678 4.63135 21.2505 4.63135 21.5993Z" fill="#293AA4"/>
<path d="M17.2632 21.6841C17.2632 23.1932 18.4909 24.421 20.0001 24.421C21.5092 24.421 22.7369 23.1932 22.7369 21.6841C22.7369 20.1751 21.5092 18.9473 20.0001 18.9473C18.4909 18.9473 17.2632 20.1751 17.2632 21.6841ZM21.4737 21.6841C21.4737 22.4967 20.8125 23.1578 20.0001 23.1578C19.1875 23.1578 18.5264 22.4966 18.5264 21.6841C18.5264 20.8716 19.1876 20.2105 20.0001 20.2105C20.8126 20.2105 21.4737 20.8716 21.4737 21.6841Z" fill="#293AA4"/>
<path d="M39.3684 38.3156H37.4737V37.2629C37.4737 35.986 36.4348 34.9472 35.1579 34.9472H34.1052V30.5309C34.1052 30.5279 34.1052 30.525 34.1052 30.5219V26.9472H34.7368C37.6389 26.9472 39.9999 24.5861 39.9999 21.684C39.9999 18.782 37.6389 16.4209 34.7368 16.4209H31.7895C31.4405 16.4209 31.1579 16.7037 31.1579 17.0525C31.1579 17.4013 31.4405 17.684 31.7895 17.684H34.7368C36.9423 17.684 38.7368 19.4785 38.7368 21.684C38.7368 23.8896 36.9423 25.684 34.7368 25.684H28.4255C28.4226 25.684 28.4198 25.684 28.4166 25.684H25.0566C25.0535 25.684 25.0507 25.684 25.0477 25.684H14.952C14.9491 25.684 14.9462 25.684 14.9431 25.684H11.5831C11.58 25.684 11.5771 25.684 11.5742 25.684H5.26312C3.05758 25.684 1.26312 23.8897 1.26312 21.684C1.26312 19.4784 3.05758 17.684 5.26312 17.684H29.2631C29.612 17.684 29.8947 17.4012 29.8947 17.0525C29.8947 16.7036 29.612 16.4209 29.2631 16.4209H5.26312C2.36102 16.4208 0 18.7819 0 21.684C0 24.5861 2.36102 26.9472 5.26312 26.9472H5.89469V30.5219C5.89469 30.525 5.89469 30.5279 5.89469 30.5309V34.9472H4.84211C3.56523 34.9472 2.52633 35.986 2.52633 37.2629V38.3156H0.631562C0.282656 38.3156 0 38.5984 0 38.9472C0 39.2959 0.282734 39.5787 0.631562 39.5787H4.84211C5.19102 39.5787 5.47367 39.2959 5.47367 38.9472C5.47367 38.5984 5.19102 38.3156 4.84211 38.3156H3.78945V37.2629C3.78945 36.6825 4.26164 36.2103 4.84211 36.2103H8.21055C8.79102 36.2103 9.2632 36.6825 9.2632 37.2629V38.3156H7.36844C7.01953 38.3156 6.73688 38.5984 6.73688 38.9472C6.73688 39.2959 7.01961 39.5787 7.36844 39.5787H39.3684C39.7173 39.5787 40 39.2959 40 38.9472C40 38.5984 39.7173 38.3156 39.3684 38.3156ZM32.8421 26.9472V29.1776L30.1655 26.9472H32.8421ZM20.6316 26.9472H23.3081L20.6316 29.1776V26.9472ZM19.3684 26.9472V29.1776L16.6919 26.9472H19.3684ZM7.15789 26.9472H9.83445L7.15789 29.1776V26.9472ZM16 37.2629V38.3156H10.5263V37.2629C10.5263 35.986 9.48742 34.9472 8.21055 34.9472H7.15789V30.8219L11.8077 26.9472H14.7187L19.3684 30.8219V34.9472H18.3158C17.0389 34.9472 16 35.986 16 37.2629ZM22.7369 38.3156H17.2632V37.2629C17.2632 36.6825 17.7354 36.2103 18.3159 36.2103H21.6843C22.2648 36.2103 22.737 36.6825 22.737 37.2629V38.3156H22.7369ZM29.4737 37.2629V38.3156H24V37.2629C24 35.986 22.9611 34.9472 21.6842 34.9472H20.6316V30.8219L25.2813 26.9472H28.1923L32.8421 30.8219V34.9472H31.7895C30.5126 34.9472 29.4737 35.986 29.4737 37.2629ZM36.2105 38.3156H30.7369V37.2629C30.7369 36.6825 31.2091 36.2103 31.7895 36.2103H35.158C35.7384 36.2103 36.2106 36.6825 36.2106 37.2629V38.3156H36.2105Z" fill="#293AA4"/>
<path d="M35.3686 21.7678V21.5993C35.3686 21.2505 35.0859 20.9678 34.737 20.9678C34.3881 20.9678 34.1055 21.2506 34.1055 21.5993V21.7678C34.1055 22.1166 34.3881 22.3993 34.737 22.3993C35.0859 22.3993 35.3686 22.1165 35.3686 21.7678Z" fill="#293AA4"/>
<path d="M2.52637 21.6841C2.52637 23.1932 3.7541 24.421 5.26324 24.421C6.77238 24.421 8.00012 23.1932 8.00012 21.6841C8.00012 20.1751 6.77238 18.9473 5.26324 18.9473C3.7541 18.9473 2.52637 20.1751 2.52637 21.6841ZM6.73691 21.6841C6.73691 22.4967 6.07574 23.1578 5.26324 23.1578C4.45066 23.1578 3.78957 22.4966 3.78957 21.6841C3.78957 20.8716 4.45074 20.2105 5.26324 20.2105C6.07574 20.2105 6.73691 20.8716 6.73691 21.6841Z" fill="#293AA4"/>
<path d="M19.3687 21.5993V21.7678C19.3687 22.1166 19.6514 22.3993 20.0002 22.3993C20.3491 22.3993 20.6318 22.1165 20.6318 21.7678V21.5993C20.6318 21.2505 20.349 20.9678 20.0002 20.9678C19.6513 20.9678 19.3687 21.2505 19.3687 21.5993Z" fill="#293AA4"/>
</svg>
