<svg width="40" height="40" viewBox="0 0 40 40" fill="none" xmlns="http://www.w3.org/2000/svg">
<path d="M20.5301 24.7818C20.3806 24.4668 20.0038 24.3324 19.6888 24.482C19.1761 24.7253 18.6386 24.9264 18.0912 25.0795C17.8623 25.1436 17.6888 25.3307 17.6422 25.5639L16.9741 28.9044C16.9081 29.2342 16.6161 29.4737 16.2797 29.4737H14.4571C14.1207 29.4737 13.8287 29.2343 13.7627 28.9044L13.0946 25.5639C13.048 25.3307 12.8744 25.1436 12.6455 25.0795C11.8723 24.8631 11.126 24.5539 10.4275 24.1605C10.2202 24.0438 9.965 24.0534 9.76719 24.1852L6.93234 26.0751C6.6525 26.2616 6.27672 26.2244 6.03875 25.9866L4.75 24.6977C4.51211 24.4598 4.475 24.0841 4.66148 23.8041L6.55133 20.9693C6.68328 20.7714 6.69289 20.5163 6.57609 20.309C6.18258 19.6104 5.87336 18.8641 5.65703 18.0909C5.59297 17.862 5.40586 17.6884 5.17266 17.6419L1.83219 16.9738C1.50234 16.9078 1.26289 16.6158 1.26289 16.2794V14.4568C1.26289 14.1204 1.50227 13.8284 1.83219 13.7624L5.17266 13.0943C5.40586 13.0477 5.59297 12.8741 5.65703 12.6452C5.87344 11.872 6.18266 11.1257 6.57609 10.4272C6.69281 10.22 6.6832 9.96477 6.55133 9.76688L4.66164 6.93234C4.47508 6.65242 4.51227 6.27672 4.75016 6.03875L6.03891 4.75C6.2768 4.51211 6.65266 4.475 6.9325 4.66148L9.76734 6.55133C9.96516 6.68328 10.2205 6.69281 10.4277 6.57609C11.1262 6.18266 11.8724 5.87344 12.6457 5.65703C12.8747 5.59297 13.0482 5.40586 13.0948 5.17266L13.7629 1.83219C13.8288 1.50234 14.1209 1.26289 14.4573 1.26289H16.2798C16.6163 1.26289 16.9082 1.50227 16.9742 1.83219L17.6423 5.17266C17.689 5.40586 17.8626 5.59297 18.0914 5.65703C18.8647 5.87344 19.6109 6.18266 20.3095 6.57609C20.5167 6.69281 20.772 6.6832 20.9698 6.55133L23.8046 4.66148C24.0845 4.47492 24.4602 4.51219 24.6982 4.75L25.987 6.03875C26.2248 6.27664 26.262 6.65242 26.0755 6.93234L24.1856 9.76719C24.0537 9.96508 24.0441 10.2202 24.1609 10.4275C24.5543 11.126 24.8635 11.8723 25.0799 12.6455C25.144 12.8745 25.3311 13.048 25.5643 13.0946L28.9048 13.7627C29.2346 13.8287 29.4741 14.1207 29.4741 14.4571V16.2797C29.4741 16.6161 29.2347 16.908 28.9048 16.9741L25.5643 17.6422C25.3311 17.6888 25.144 17.8624 25.0799 18.0914C24.923 18.6523 24.7159 19.2026 24.4643 19.7269C24.3134 20.0413 24.446 20.4186 24.7605 20.5695C25.0749 20.7205 25.4523 20.5877 25.603 20.2733C25.8301 19.8001 26.025 19.3081 26.1845 18.8063L29.1525 18.2127C30.0704 18.029 30.7368 17.216 30.7368 16.2796V14.457C30.7368 13.5206 30.0704 12.7077 29.1521 12.524L26.1841 11.9304C25.9895 11.3176 25.7427 10.7218 25.4471 10.1516L27.1262 7.63289C27.6455 6.85375 27.542 5.80766 26.8798 5.14547L25.5911 3.85672C24.9288 3.19453 23.8827 3.09109 23.1037 3.61039L20.585 5.28945C20.0148 4.99391 19.419 4.74711 18.8062 4.55242L18.2126 1.58445C18.0291 0.666406 17.2161 0 16.2797 0H14.4571C13.5207 0 12.7078 0.666406 12.5241 1.58469L11.9305 4.55266C11.3177 4.74734 10.7219 4.99406 10.1516 5.28969L7.63313 3.61063C6.85406 3.09125 5.80789 3.19469 5.1457 3.85695L3.85695 5.1457C3.19484 5.80789 3.09125 6.85391 3.61063 7.63313L5.28969 10.1518C4.99414 10.722 4.74734 11.3177 4.55266 11.9306L1.58461 12.5242C0.666406 12.7078 0 13.5208 0 14.4572V16.2798C0 17.2162 0.666406 18.0291 1.58469 18.2128L4.55266 18.8064C4.74727 19.4191 4.99406 20.0149 5.28969 20.5852L3.61063 23.1039C3.09125 23.8831 3.19477 24.9291 3.85695 25.5913L5.1457 26.8801C5.80789 27.5423 6.85398 27.6457 7.63313 27.1264L10.1518 25.4473C10.722 25.7429 11.3177 25.9897 11.9306 26.1844L12.5242 29.1525C12.7078 30.0705 13.5208 30.737 14.4572 30.737H16.2798C17.2162 30.737 18.0291 30.0705 18.2128 29.1523L18.8064 26.1843C19.293 26.0297 19.7707 25.8416 20.2305 25.6234C20.5455 25.4737 20.6798 25.097 20.5301 24.7818Z" fill="#293AA4"/>
<path d="M20.839 18.8773C20.9312 18.9246 21.0296 18.9471 21.1266 18.9471C21.356 18.9471 21.5773 18.8217 21.6891 18.6036C22.1985 17.6102 22.4678 16.4914 22.4678 15.368C22.4678 11.4534 19.283 8.26855 15.3683 8.26855C13.506 8.26855 11.7462 8.98434 10.4129 10.2843C10.1631 10.5277 10.158 10.9276 10.4015 11.1773C10.6449 11.427 11.0447 11.4322 11.2945 11.1887C12.3905 10.1203 13.8372 9.53176 15.3682 9.53176C18.5863 9.53176 21.2045 12.1499 21.2045 15.3681C21.2045 16.3051 20.9894 17.1998 20.5651 18.0273C20.406 18.3375 20.5286 18.7181 20.839 18.8773Z" fill="#293AA4"/>
<path d="M9.45639 12.6664C9.12646 12.5529 8.76725 12.7283 8.65373 13.0581C8.3985 13.8001 8.26904 14.5776 8.26904 15.3688C8.26904 19.2835 11.4539 22.4683 15.3685 22.4683C16.874 22.4683 18.3125 22.003 19.5284 21.1224C19.8109 20.9178 19.8741 20.5229 19.6696 20.2404C19.4651 19.9579 19.0701 19.8947 18.7876 20.0992C17.7885 20.8226 16.6062 21.205 15.3684 21.205C12.1502 21.205 9.53209 18.5868 9.53209 15.3687C9.53209 14.7176 9.63834 14.0783 9.84803 13.4688C9.96147 13.139 9.78615 12.7797 9.45639 12.6664Z" fill="#293AA4"/>
<path d="M38.7843 27.6025L36.958 27.2372C36.8468 26.9062 36.7128 26.583 36.5575 26.2706L37.5907 24.7207C37.9891 24.1231 37.9097 23.3207 37.4018 22.8129L36.555 21.9661C36.0471 21.4582 35.2447 21.3788 34.6471 21.7771L33.0973 22.8104C32.7849 22.6551 32.4617 22.5211 32.1307 22.41L31.7654 20.5836C31.6246 19.8793 31.0011 19.3682 30.2829 19.3682H29.0851C28.367 19.3682 27.7434 19.8793 27.6025 20.5836L27.2373 22.41C26.9063 22.5212 26.5831 22.6552 26.2707 22.8104L24.7208 21.7771C24.1232 21.3789 23.3208 21.4582 22.813 21.9661L21.9661 22.8129C21.4582 23.3208 21.3789 24.1232 21.7772 24.7207L22.8105 26.2706C22.5969 26.7001 22.4239 27.15 22.2945 27.6125C22.2005 27.9485 22.3967 28.2969 22.7325 28.391C23.0685 28.485 23.4169 28.2889 23.511 27.9529C23.6485 27.4614 23.845 26.9871 24.095 26.5433C24.2118 26.3361 24.2021 26.0808 24.0703 25.883L22.8283 24.0201C22.7628 23.9218 22.7758 23.7897 22.8594 23.7061L23.7063 22.8593C23.7899 22.7757 23.9219 22.7628 24.0203 22.8282L25.8832 24.0701C26.081 24.2021 26.3362 24.2116 26.5435 24.0949C26.9874 23.8449 27.4615 23.6483 27.9531 23.5108C28.1821 23.4468 28.3556 23.2596 28.4021 23.0264L28.8411 20.8314C28.8643 20.7155 28.9669 20.6314 29.0851 20.6314H30.2829C30.401 20.6314 30.5036 20.7155 30.5268 20.8314L30.9658 23.0266C31.0125 23.2598 31.1861 23.4469 31.4149 23.511C31.9064 23.6485 32.3807 23.845 32.8245 24.095C33.0317 24.2118 33.287 24.2021 33.4848 24.0703L35.3477 22.8283C35.4461 22.7628 35.5781 22.7757 35.6617 22.8594L36.5086 23.7063C36.5921 23.7899 36.6051 23.9219 36.5396 24.0203L35.2977 25.8832C35.1657 26.0811 35.1561 26.3362 35.2729 26.5435C35.5229 26.9874 35.7195 27.4615 35.857 27.9531C35.9211 28.1821 36.1082 28.3556 36.3414 28.4021L38.5364 28.8411C38.6523 28.8643 38.7364 28.9669 38.7364 29.0851V30.2828C38.7364 30.401 38.6523 30.5036 38.5364 30.5268L36.3412 30.9658C36.108 31.0125 35.9209 31.1861 35.8568 31.4149C35.7193 31.9064 35.5228 32.3807 35.2728 32.8245C35.1561 33.0318 35.1657 33.287 35.2975 33.4848L36.5395 35.3477C36.605 35.4461 36.592 35.5781 36.5084 35.6617L35.6615 36.5086C35.578 36.5921 35.446 36.6051 35.3475 36.5396L33.4846 35.2977C33.2868 35.1658 33.0315 35.1562 32.8243 35.2729C32.3804 35.5229 31.9063 35.7195 31.4147 35.857C31.1857 35.9211 31.0122 36.1082 30.9657 36.3414L30.5267 38.5364C30.5036 38.6523 30.4009 38.7364 30.2827 38.7364H29.085C28.9668 38.7364 28.8642 38.6523 28.841 38.5364L28.402 36.3412C28.3554 36.108 28.1818 35.9209 27.9529 35.8568C27.4614 35.7193 26.9871 35.5228 26.5433 35.2728C26.3361 35.1561 26.0807 35.1657 25.883 35.2975L24.0201 36.5395C23.9218 36.605 23.7897 36.5921 23.7061 36.5084L22.8593 35.6615C22.7757 35.5779 22.7627 35.4459 22.8282 35.3475L24.0701 33.4846C24.2021 33.2868 24.2117 33.0316 24.0949 32.8243C23.8449 32.3804 23.6483 31.9063 23.5108 31.4147C23.4468 31.1857 23.2596 31.0122 23.0264 30.9657L20.8314 30.5267C20.7155 30.5036 20.6314 30.4009 20.6314 30.2827V29.085C20.6314 28.9668 20.7155 28.8642 20.8314 28.841L20.9657 28.8141C21.3078 28.7457 21.5296 28.4129 21.4611 28.0709C21.3927 27.7289 21.0604 27.5074 20.7179 27.5755L20.5835 27.6024C19.8793 27.7433 19.3682 28.3668 19.3682 29.085V30.2828C19.3682 31.0009 19.8793 31.6245 20.5836 31.7653L22.41 32.1306C22.5212 32.4616 22.6552 32.7848 22.8104 33.0972L21.7771 34.6471C21.3787 35.2447 21.4582 36.0471 21.9661 36.5549L22.8129 37.4018C23.3208 37.9096 24.1232 37.989 24.7207 37.5907L26.2706 36.5574C26.583 36.7127 26.9062 36.8467 27.2372 36.9578L27.6025 38.7842C27.7435 39.4885 28.367 39.9996 29.0852 39.9996H30.2829C31.0011 39.9996 31.6247 39.4885 31.7655 38.7842L32.1307 36.9578C32.4618 36.8466 32.785 36.7126 33.0974 36.5573L34.6472 37.5906C35.2449 37.9889 36.0472 37.9096 36.555 37.4017L37.4019 36.5548C37.9098 36.0469 37.9892 35.2446 37.5908 34.647L36.5575 33.0971C36.7129 32.7847 36.8468 32.4615 36.958 32.1305L38.7843 31.7653C39.4886 31.6244 39.9997 31.0009 39.9997 30.2827V29.085C39.9998 28.3668 39.4886 27.7433 38.7843 27.6025Z" fill="#293AA4"/>
<path d="M29.6839 27.4107C30.9377 27.4107 31.9576 28.4306 31.9576 29.6843C31.9576 30.0332 32.2404 30.3159 32.5892 30.3159C32.9379 30.3159 33.2207 30.0331 33.2207 29.6843C33.2207 27.7341 31.6341 26.1475 29.6838 26.1475C27.7336 26.1475 26.147 27.7341 26.147 29.6843C26.147 31.6346 27.7336 33.2212 29.6838 33.2212C30.4738 33.2212 31.221 32.9665 31.8447 32.4846C32.1207 32.2713 32.1716 31.8747 31.9584 31.5986C31.7451 31.3225 31.3484 31.2716 31.0724 31.4849C30.6717 31.7943 30.1916 31.958 29.6838 31.958C28.4301 31.958 27.4102 30.9381 27.4102 29.6843C27.4103 28.4305 28.4302 27.4107 29.6839 27.4107Z" fill="#293AA4"/>
<path d="M19.2163 15.3684C19.2163 13.2467 17.49 11.5205 15.3684 11.5205C13.2467 11.5205 11.5205 13.2468 11.5205 15.3684C11.5205 17.4901 13.2467 19.2163 15.3684 19.2163C17.4901 19.2163 19.2163 17.49 19.2163 15.3684ZM12.7836 15.3684C12.7836 13.9432 13.9432 12.7836 15.3684 12.7836C16.7936 12.7836 17.9532 13.9432 17.9532 15.3684C17.9532 16.7936 16.7936 17.9532 15.3684 17.9532C13.9431 17.9532 12.7836 16.7936 12.7836 15.3684Z" fill="#293AA4"/>
</svg>
