<svg width="40" height="40" viewBox="0 0 40 40" fill="none" xmlns="http://www.w3.org/2000/svg">
<g clip-path="url(#clip0)">
<path d="M13.6648 5.47367H21.2824C21.7721 5.47367 22.2283 5.23172 22.5028 4.82625C22.7773 4.42078 22.8326 3.90727 22.6509 3.45266L21.6403 0.926328C21.4152 0.363594 20.8781 0 20.272 0H14.6755C14.0692 0 13.5321 0.363594 13.307 0.926406L12.2965 3.45273C12.1147 3.90742 12.17 4.42094 12.4445 4.82633C12.7191 5.23172 13.1752 5.47367 13.6648 5.47367ZM13.4694 3.9218L14.4799 1.39547C14.5121 1.31516 14.5888 1.2632 14.6754 1.2632H20.2719C20.3585 1.2632 20.4352 1.31516 20.4674 1.39547L21.478 3.9218C21.5141 4.01203 21.4802 4.08336 21.4568 4.11797C21.4334 4.15258 21.3797 4.21055 21.2825 4.21055H13.6648C13.5677 4.21055 13.5138 4.1525 13.4906 4.11797C13.4672 4.08344 13.4334 4.01203 13.4694 3.9218Z" fill="#293AA4"/>
<path d="M13.8947 9.05246C13.8947 8.70355 13.612 8.4209 13.2631 8.4209H7.36838C7.01947 8.4209 6.73682 8.70355 6.73682 9.05246C6.73682 9.40137 7.01955 9.68402 7.36838 9.68402H13.2631C13.612 9.68402 13.8947 9.40129 13.8947 9.05246Z" fill="#293AA4"/>
<path d="M38.8155 13.7717L37.084 13.4254C36.9799 13.118 36.8554 12.8175 36.7117 12.5268L37.6912 11.0575C38.0795 10.475 38.0021 9.69309 37.5071 9.19801L36.697 8.38793C36.2326 7.92348 35.5155 7.8266 34.9476 8.1373V4.84215C34.9476 3.56527 33.9087 2.52637 32.6318 2.52637H30.1055H29.1791H24.2107C23.8618 2.52637 23.5791 2.80902 23.5791 3.15793C23.5791 3.50684 23.8618 3.78949 24.2107 3.78949H29.1791H29.4739V5.89738C28.799 5.92449 28.221 6.41238 28.0877 7.07941L27.7414 8.81082C27.434 8.91488 27.1336 9.03941 26.8427 9.18316L25.3735 8.20371C24.7909 7.81543 24.009 7.89285 23.514 8.38777L22.7039 9.19785C22.2089 9.69293 22.1316 10.4749 22.5198 11.0574L23.4993 12.5265C23.3555 12.8175 23.231 13.1179 23.127 13.4253L21.3956 13.7715C20.7092 13.9088 20.2109 14.5165 20.2109 15.2166V16.3622C20.2109 17.0623 20.7092 17.67 21.3956 17.8073L23.127 18.1536C23.231 18.461 23.3556 18.7614 23.4993 19.0523L22.5198 20.5214C22.1316 21.1039 22.2089 21.8859 22.7039 22.381L23.514 23.1911C24.0091 23.686 24.791 23.7636 25.3735 23.3751L26.8427 22.3957C27.1336 22.5394 27.4341 22.6639 27.7414 22.768L28.0877 24.4993C28.2249 25.1857 28.8327 25.684 29.5327 25.684H30.6784C31.3784 25.684 31.9862 25.1857 32.1234 24.4993L32.4697 22.768C32.7771 22.6639 33.0775 22.5394 33.3684 22.3957L34.8376 23.3751C35.4202 23.7635 36.2022 23.6861 36.6971 23.1911L37.5072 22.381C38.0022 21.8859 38.0795 21.1039 37.6913 20.5214L36.7118 19.0523C36.8555 18.7614 36.9801 18.4609 37.0841 18.1536L38.8155 17.8073C39.5019 17.67 40.0002 17.0623 40.0002 16.3622V15.2166C40.0002 14.5167 39.5019 13.9089 38.8155 13.7717ZM30.737 3.78949H32.6318C33.2123 3.78949 33.6845 4.26168 33.6845 4.84215V8.97254L33.3684 9.18324C33.0775 9.03949 32.777 8.91496 32.4697 8.8109L32.1234 7.07957C31.9901 6.41254 31.4121 5.92465 30.7372 5.89754V3.78949H30.737ZM38.737 16.3623C38.737 16.4622 38.6659 16.5492 38.5677 16.5687L36.468 16.9886C36.2348 17.0353 36.0477 17.2089 35.9836 17.4378C35.8528 17.9054 35.6657 18.3571 35.4275 18.78C35.3108 18.9873 35.3205 19.2425 35.4523 19.4404L36.6402 21.2222C36.6957 21.3054 36.6846 21.4171 36.6139 21.4878L35.8038 22.2979C35.7331 22.3686 35.6215 22.3797 35.5382 22.3242L33.7564 21.1363C33.5584 21.0043 33.3033 20.9948 33.0961 21.1114C32.6732 21.3497 32.2216 21.5367 31.7538 21.6675C31.5248 21.7316 31.3513 21.9187 31.3046 22.1519L30.8847 24.2517C30.8652 24.3498 30.7784 24.421 30.6783 24.421H29.5327C29.4327 24.421 29.3458 24.3498 29.3263 24.2517L28.9063 22.1519C28.8597 21.9187 28.6861 21.7316 28.4571 21.6675C27.9895 21.5368 27.5378 21.3497 27.1148 21.1114C27.0184 21.0571 26.9116 21.0302 26.8048 21.0302C26.6824 21.0302 26.5603 21.0657 26.4545 21.1363L24.6727 22.3242C24.5895 22.3797 24.4779 22.3686 24.4071 22.2979L23.597 21.4878C23.5263 21.4172 23.5152 21.3054 23.5707 21.2222L24.7586 19.4404C24.8905 19.2425 24.9002 18.9873 24.7834 18.78C24.5452 18.3572 24.3582 17.9055 24.2273 17.4378C24.1633 17.2088 23.9762 17.0353 23.743 16.9886L21.6432 16.5686C21.5451 16.5491 21.4739 16.4623 21.4739 16.3622V15.2166C21.4739 15.1167 21.5451 15.0297 21.6432 15.0102L23.743 14.5903C23.9762 14.5436 24.1633 14.37 24.2273 14.1411C24.3581 13.6734 24.5452 13.2218 24.7834 12.7988C24.9002 12.5915 24.8905 12.3364 24.7586 12.1385L23.5707 10.3567C23.5152 10.2735 23.5263 10.1618 23.597 10.0911L24.4071 9.28098C24.4777 9.21012 24.5894 9.19902 24.6727 9.25465L26.4545 10.4425C26.6524 10.5745 26.9076 10.5839 27.1148 10.4674C27.5377 10.2292 27.9894 10.0421 28.4571 9.91129C28.6861 9.84723 28.8596 9.66012 28.9063 9.42691L29.3263 7.32715C29.3458 7.22902 29.4326 7.15785 29.5327 7.15785H30.6783C30.7782 7.15785 30.8652 7.22902 30.8847 7.32715L31.3046 9.42691C31.3512 9.66012 31.5248 9.84723 31.7538 9.91129C32.2215 10.0421 32.6731 10.2292 33.0961 10.4674C33.3034 10.5841 33.5585 10.5746 33.7564 10.4425L35.5382 9.25465C35.6215 9.1991 35.7331 9.2102 35.8038 9.28098L36.6139 10.0911C36.6846 10.1617 36.6958 10.2735 36.6402 10.3567L35.4523 12.1385C35.3205 12.3364 35.3108 12.5915 35.4275 12.7988C35.6655 13.2214 35.8527 13.6731 35.9836 14.1411C36.0477 14.37 36.2348 14.5436 36.468 14.5902L38.5677 15.0101C38.6659 15.0296 38.737 15.1164 38.737 15.2165V16.3623Z" fill="#293AA4"/>
<path d="M30.1054 12.3789C28.2247 12.3789 26.6948 13.9088 26.6948 15.7895C26.6948 17.6701 28.2247 19.2 30.1054 19.2C30.4543 19.2 30.7369 18.9173 30.7369 18.5684C30.7369 18.2195 30.4543 17.9369 30.1054 17.9369C28.9213 17.9369 27.958 16.9736 27.958 15.7895C27.958 14.6055 28.9213 13.6422 30.1054 13.6422C31.2894 13.6422 32.2527 14.6055 32.2527 15.7895C32.2527 16.2645 32.101 16.7143 31.8139 17.0905C31.6022 17.3678 31.6555 17.7641 31.9328 17.9758C32.2101 18.1875 32.6065 18.1341 32.818 17.8569C33.2746 17.2587 33.5158 16.5437 33.5158 15.7895C33.5159 13.9088 31.986 12.3789 30.1054 12.3789Z" fill="#293AA4"/>
<path d="M7.36838 10.9473C7.01947 10.9473 6.73682 11.2299 6.73682 11.5788C6.73682 11.9277 7.01955 12.2104 7.36838 12.2104H11.5789C11.9278 12.2104 12.2105 11.9277 12.2105 11.5788C12.2105 11.2299 11.9278 10.9473 11.5789 10.9473H7.36838Z" fill="#293AA4"/>
<path d="M34.3158 24.4211C33.9669 24.4211 33.6842 24.7037 33.6842 25.0526V37.6842C33.6842 38.2646 33.212 38.7368 32.6316 38.7368H2.31578C1.73531 38.7368 1.26313 38.2646 1.26313 37.6842V4.84215C1.26313 4.26168 1.73531 3.78949 2.31578 3.78949H4.21055V34.3158C4.21055 35.1284 4.87172 35.7895 5.68422 35.7895H23.3684C23.7173 35.7895 24 35.5068 24 35.1579C24 34.809 23.7173 34.5264 23.3684 34.5264H5.68422C5.56813 34.5264 5.47367 34.432 5.47367 34.3158V32.4211H29.4737V34.3159C29.4737 34.432 29.3793 34.5264 29.2631 34.5264H25.8947C25.5458 34.5264 25.2631 34.8092 25.2631 35.158C25.2631 35.5068 25.5459 35.7896 25.8947 35.7896H29.2631C30.0757 35.7896 30.7368 35.1284 30.7368 34.3159V27.579C30.7368 27.2301 30.4541 26.9475 30.1052 26.9475C29.7563 26.9475 29.4737 27.2301 29.4737 27.579V31.1579H5.47367V24.8422H8.24313C8.56461 24.8422 8.86414 24.9862 9.06508 25.2372L11.4221 28.1835C11.8639 28.7358 12.523 29.0526 13.2305 29.0526H17.7263C18.3984 29.0526 19.0363 28.7614 19.4763 28.2534L22.6219 24.624C22.8503 24.3604 22.8218 23.9615 22.5582 23.7331C22.2946 23.5047 21.8958 23.5332 21.6673 23.7968L18.5217 27.4262C18.3217 27.6571 18.0319 27.7894 17.7263 27.7894H13.2305C12.9089 27.7894 12.6094 27.6454 12.4086 27.3944L10.0516 24.4481C9.60961 23.8958 8.95039 23.579 8.2432 23.579H5.47367V16.4211H17.8527C18.2016 16.4211 18.4842 16.1385 18.4842 15.7896C18.4842 15.4407 18.2016 15.158 17.8527 15.158H5.47367V3.78949H5.64211H10.7369C11.0858 3.78949 11.3684 3.50684 11.3684 3.15793C11.3684 2.80902 11.0858 2.52637 10.7369 2.52637H5.64211H4.84211H2.31578C1.03891 2.52637 0 3.56527 0 4.84215V37.6843C0 38.9611 1.03891 40 2.31578 40H32.6316C33.9084 40 34.9473 38.9611 34.9473 37.6843V25.0527C34.9473 24.7038 34.6647 24.4211 34.3158 24.4211Z" fill="#293AA4"/>
</g>
<defs>
<clipPath id="clip0">
<rect width="40" height="40" fill="white"/>
</clipPath>
</defs>
</svg>
