<svg width="48" height="48" viewBox="0 0 48 48" fill="none" xmlns="http://www.w3.org/2000/svg">
<path d="M8.0001 44C8.00283 46.2082 9.79189 47.9973 12.0001 48H36.0001C38.2083 47.9973 39.9974 46.2082 40.0001 44V25.6H43.2001V23.2H46.4001V5.6C46.3962 2.50898 43.8911 0.00390625 40.8001 0H7.2001C4.10908 0.00390625 1.604 2.50898 1.6001 5.6V23.2H4.8001V25.6H8.0001V44ZM38.4001 44C38.4001 45.3254 37.3255 46.4 36.0001 46.4H12.0001C10.6747 46.4 9.6001 45.3254 9.6001 44V36.8H38.4001V44ZM41.6001 24H40.0001V20.8H41.6001V24ZM8.8001 16C7.47471 16 6.4001 14.9254 6.4001 13.6C6.4001 12.2746 7.47471 11.2 8.8001 11.2H15.4239L13.8239 16H8.8001ZM17.1106 11.2H31.4231L29.8231 16H15.5106L17.1106 11.2ZM33.1106 11.2H39.2001C40.5255 11.2 41.6001 12.2746 41.6001 13.6C41.6001 14.9254 40.5255 16 39.2001 16H31.5099L33.1106 11.2ZM3.2001 21.6V5.6C3.20283 3.3918 4.99189 1.60273 7.2001 1.6H40.8001C43.0083 1.60273 44.7974 3.3918 44.8001 5.6V21.6H43.2001V19.2H40.0001V17.5199C42.0142 17.1109 43.3903 15.2426 43.1837 13.198C42.9774 11.1535 41.2552 9.59805 39.2001 9.6H8.8001C6.74502 9.59805 5.02275 11.1535 4.8165 13.198C4.60986 15.2426 5.98604 17.1109 8.0001 17.5199V19.2H4.8001V21.6H3.2001ZM6.4001 24V20.8H8.0001V24H6.4001ZM9.6001 17.6H38.4001V27.2H9.6001V17.6ZM38.4001 28.8V35.2H9.6001V28.8H38.4001Z" fill="white"/>
<path d="M12.0002 20.8002H28.0002C28.442 20.8002 28.8002 20.442 28.8002 20.0002C28.8002 19.5584 28.442 19.2002 28.0002 19.2002H12.0002C11.5584 19.2002 11.2002 19.5584 11.2002 20.0002C11.2002 20.442 11.5584 20.8002 12.0002 20.8002Z" fill="white"/>
<path d="M31.2004 20.8002H32.8004C33.2422 20.8002 33.6004 20.442 33.6004 20.0002C33.6004 19.5584 33.2422 19.2002 32.8004 19.2002H31.2004C30.7586 19.2002 30.4004 19.5584 30.4004 20.0002C30.4004 20.442 30.7586 20.8002 31.2004 20.8002Z" fill="white"/>
</svg>
