<svg width="40" height="40" viewBox="0 0 40 40" fill="none" xmlns="http://www.w3.org/2000/svg">
<g clip-path="url(#clip0)">
<path d="M38.5263 2.52633H24V2.31578C24 1.03891 22.9611 0 21.6842 0H18.3158C17.0389 0 16 1.03891 16 2.31578V2.52633H1.47367C0.661172 2.52633 0 3.18742 0 4V8.21055C0 8.55945 0.282734 8.84211 0.631562 8.84211C0.980391 8.84211 1.26312 8.55945 1.26312 8.21055V4C1.26312 3.88391 1.3575 3.78945 1.47367 3.78945H19.1579C19.5068 3.78945 19.7895 3.5068 19.7895 3.15789C19.7895 2.80898 19.5068 2.52633 19.1579 2.52633H17.2631V2.31578C17.2631 1.73531 17.7353 1.26312 18.3158 1.26312H21.6842C22.2647 1.26312 22.7369 1.73531 22.7369 2.31578V2.52633H21.6842C21.3353 2.52633 21.0527 2.80898 21.0527 3.15789C21.0527 3.5068 21.3353 3.78945 21.6842 3.78945H38.5263C38.6424 3.78945 38.7369 3.88383 38.7369 4V22.5262C38.7369 22.8752 39.0196 23.1578 39.3684 23.1578C39.7173 23.1578 40 22.8751 40 22.5262V4C40 3.18742 39.3388 2.52633 38.5263 2.52633Z" fill="#293AA4"/>
<path d="M39.3684 24.4212C39.0195 24.4212 38.7369 24.7038 38.7369 25.0527V29.2633C38.7369 29.3794 38.6425 29.4738 38.5263 29.4738H1.47367C1.35758 29.4738 1.26312 29.3794 1.26312 29.2633V10.737C1.26312 10.3881 0.980391 10.1055 0.631562 10.1055C0.282734 10.1055 0 10.3881 0 10.737V29.2634C0 30.0759 0.661172 30.737 1.47367 30.737H10.9473V38.737H8.21047C7.86156 38.737 7.57891 39.0198 7.57891 39.3686C7.57891 39.7175 7.86156 40.0002 8.21047 40.0002H31.7895C32.1384 40.0002 32.421 39.7175 32.421 39.3686C32.421 39.0197 32.1384 38.737 31.7895 38.737H29.0526V30.737H38.5262C39.3388 30.737 39.9999 30.0759 39.9999 29.2634V25.0528C40 24.7039 39.7173 24.4212 39.3684 24.4212ZM27.7895 32.8423H14.1052C13.7563 32.8423 13.4737 33.1249 13.4737 33.4738C13.4737 33.8227 13.7563 34.1054 14.1052 34.1054H27.7895V38.7369H12.2105V30.737H27.7895V32.8423H27.7895Z" fill="#293AA4"/>
<path d="M4.46066 14.8044C3.8277 14.9309 3.36816 15.4913 3.36816 16.1369V17.1262C3.36816 17.7717 3.82762 18.3322 4.46051 18.4587L5.90731 18.7481C5.98965 18.9852 6.08582 19.2173 6.1952 19.443L5.37668 20.6707C5.01863 21.2078 5.09004 21.9288 5.54645 22.3853L6.24606 23.0849C6.70254 23.5413 7.42356 23.6127 7.96067 23.2547L9.1884 22.4362C9.41403 22.5455 9.64614 22.6417 9.88325 22.7241L10.1727 24.1708C10.2992 24.8038 10.8596 25.2633 11.5052 25.2633H12.4945C13.14 25.2633 13.7005 24.8038 13.827 24.1709L14.1165 22.7241C14.3535 22.6418 14.5857 22.5456 14.8113 22.4363L16.039 23.2548C16.5761 23.6128 17.2971 23.5415 17.7536 23.085L18.4533 22.3854C18.9097 21.9289 18.9811 21.2079 18.623 20.6708L17.8045 19.443C17.9139 19.2174 18.01 18.9853 18.0924 18.7482L19.5391 18.4588C20.1722 18.3323 20.6316 17.7719 20.6316 17.1263V16.137C20.6316 15.4914 20.1722 14.9309 19.5393 14.8045L18.0925 14.515C18.0101 14.2779 17.914 14.0458 17.8046 13.8202L18.6231 12.5924C18.9811 12.0553 18.9097 11.3343 18.4533 10.8778L17.7537 10.1782C17.2971 9.7218 16.5762 9.65039 16.0391 10.0084L14.8114 10.827C14.5857 10.7176 14.3536 10.6214 14.1165 10.5391L13.8271 9.09234C13.7005 8.45945 13.1402 8 12.4945 8H11.5052C10.8596 8 10.2992 8.45945 10.1727 9.09234L9.88325 10.5391C9.64622 10.6215 9.41403 10.7177 9.1884 10.827L7.96075 10.0085C7.42371 9.65055 6.7027 9.7218 6.24613 10.1783L5.54652 10.8779C5.09012 11.3344 5.01871 12.0554 5.37676 12.5925L6.19528 13.8202C6.0859 14.0459 5.98973 14.2779 5.90738 14.5151L4.46066 14.8044ZM6.52168 15.6802C6.75489 15.6336 6.94192 15.4601 7.00606 15.2313C7.11739 14.8334 7.27637 14.4498 7.47848 14.091C7.59528 13.8838 7.58567 13.6285 7.45371 13.4306L6.4277 11.8918C6.40254 11.854 6.40754 11.8031 6.43973 11.771L7.13934 11.0714C7.17145 11.0391 7.22215 11.0341 7.26012 11.0594L8.79895 12.0854C8.99684 12.2173 9.25215 12.2269 9.45926 12.1102C9.81825 11.908 10.2018 11.7491 10.5996 11.6377C10.8285 11.5736 11.0019 11.3866 11.0486 11.1534L11.4114 9.33992C11.4202 9.29547 11.4597 9.26313 11.5052 9.26313H12.4945C12.54 9.26313 12.5795 9.29547 12.5883 9.34L12.9511 11.1534C12.9978 11.3866 13.1713 11.5736 13.4001 11.6377C13.7979 11.7491 14.1815 11.908 14.5404 12.1102C14.7475 12.227 15.0029 12.2174 15.2008 12.0854L16.7396 11.0594C16.7775 11.0341 16.8283 11.0391 16.8604 11.0714L17.56 11.771C17.5922 11.8031 17.5971 11.8539 17.572 11.8918L16.546 13.4306C16.414 13.6285 16.4044 13.8838 16.5212 14.091C16.7233 14.4498 16.8823 14.8334 16.9936 15.2313C17.0578 15.4602 17.2448 15.6336 17.478 15.6802L19.2915 16.043C19.3359 16.0519 19.3683 16.0914 19.3683 16.1369V17.1262C19.3683 17.1716 19.3359 17.2112 19.2914 17.22L17.478 17.5828C17.2448 17.6295 17.0578 17.803 16.9936 18.0318C16.8823 18.4296 16.7233 18.8131 16.5212 19.1721C16.4044 19.3793 16.4141 19.6345 16.546 19.8324L17.572 21.3713C17.5972 21.4091 17.5922 21.4599 17.56 21.492L16.8604 22.1916C16.8283 22.2238 16.7775 22.2289 16.7396 22.2037L15.2008 21.1777C15.0029 21.0456 14.7475 21.036 14.5404 21.1529C14.1815 21.355 13.7979 21.514 13.4001 21.6253C13.1712 21.6895 12.9978 21.8765 12.9511 22.1097L12.5883 23.9231C12.5795 23.9676 12.54 23.9999 12.4945 23.9999H11.5052C11.4597 23.9999 11.4202 23.9676 11.4114 23.923L11.0486 22.1097C11.0019 21.8765 10.8284 21.6895 10.5996 21.6253C10.2018 21.514 9.81825 21.355 9.45926 21.1529C9.36286 21.0985 9.25598 21.0716 9.14926 21.0716C9.02684 21.0716 8.90473 21.1071 8.79895 21.1777L7.26012 22.2037C7.22223 22.229 7.17145 22.2238 7.13934 22.1916L6.43973 21.492C6.40754 21.4599 6.40262 21.4091 6.4277 21.3713L7.45371 19.8324C7.58559 19.6345 7.59528 19.3793 7.47848 19.1721C7.27637 18.8131 7.11739 18.4296 7.00606 18.0318C6.94192 17.8029 6.75489 17.6295 6.52168 17.5828L4.70824 17.22C4.66379 17.2112 4.63145 17.1716 4.63145 17.1262V16.1369C4.63145 16.0914 4.66379 16.0519 4.70832 16.043L6.52168 15.6802Z" fill="#293AA4"/>
<path d="M12.0003 19.6627C13.672 19.6627 15.0319 18.3028 15.0319 16.6312C15.0319 14.9595 13.672 13.5996 12.0003 13.5996C10.3287 13.5996 8.96875 14.9595 8.96875 16.6312C8.96875 18.3028 10.3287 19.6627 12.0003 19.6627ZM12.0003 14.8627C12.9754 14.8627 13.7688 15.6561 13.7688 16.6312C13.7688 17.6063 12.9754 18.3996 12.0003 18.3996C11.0252 18.3996 10.2319 17.6063 10.2319 16.6312C10.2319 15.6561 11.0252 14.8627 12.0003 14.8627Z" fill="#293AA4"/>
<path d="M24.2107 5.89453C23.8618 5.89453 23.5791 6.17727 23.5791 6.52609V26.7366C23.5791 27.0855 23.8618 27.3682 24.2107 27.3682C24.5596 27.3682 24.8422 27.0855 24.8422 26.7366V24.8419H35.158C35.9706 24.8419 36.6317 24.1807 36.6317 23.3682V21.684C36.6317 20.8714 35.9705 20.2103 35.158 20.2103H32.6317C32.2828 20.2103 32.0001 20.493 32.0001 20.8419C32.0001 21.1908 32.2829 21.4734 32.6317 21.4734H35.158C35.2741 21.4734 35.3686 21.5678 35.3686 21.684V23.3682C35.3686 23.4843 35.2742 23.5787 35.158 23.5787H24.8422V21.4735H30.1054C30.4543 21.4735 30.7369 21.1909 30.7369 20.842C30.7369 20.493 30.4543 20.2104 30.1054 20.2104H24.8422V18.9473H30.9475C31.76 18.9473 32.4211 18.2861 32.4211 17.4736V15.7894C32.4211 14.9768 31.76 14.3157 30.9475 14.3157H29.2632C28.9143 14.3157 28.6317 14.5984 28.6317 14.9473C28.6317 15.2962 28.9144 15.5788 29.2632 15.5788H30.9475C31.0636 15.5788 31.158 15.6732 31.158 15.7894V17.4736C31.158 17.5897 31.0636 17.6841 30.9475 17.6841H24.8422V15.5789H26.737C27.0859 15.5789 27.3686 15.2962 27.3686 14.9473C27.3686 14.5984 27.0859 14.3158 26.737 14.3158H24.8422V13.0527H27.5791C28.3917 13.0527 29.0528 12.3915 29.0528 11.579V9.89476C29.0528 9.08219 28.3916 8.42109 27.5791 8.42109H24.8422V6.52609C24.8422 6.17719 24.5595 5.89453 24.2107 5.89453ZM27.579 9.68398C27.6951 9.68398 27.7896 9.77836 27.7896 9.89453V11.5787C27.7896 11.6948 27.6952 11.7893 27.579 11.7893H24.8421V9.68406H27.579V9.68398Z" fill="#293AA4"/>
</g>
<defs>
<clipPath id="clip0">
<rect width="40" height="40" fill="white"/>
</clipPath>
</defs>
</svg>
