<svg width="48" height="48" viewBox="0 0 48 48" fill="none" xmlns="http://www.w3.org/2000/svg">
<path d="M9.02828 40.7063L10.5283 45.9563C10.5731 46.113 10.6678 46.2508 10.798 46.349C10.9282 46.4471 11.0868 46.5001 11.2498 46.5H36.7498C36.9128 46.5001 37.0714 46.4471 37.2016 46.349C37.3318 46.2508 37.4265 46.113 37.4713 45.9563L38.9713 40.7063C38.9961 40.6214 39.0058 40.5327 38.9998 40.4445L37.4998 20.25V7.5C37.4997 7.37941 37.4706 7.26061 37.4148 7.15369C37.3591 7.04676 37.2784 6.95485 37.1795 6.88575L29.6795 1.63575C29.5671 1.55718 29.4354 1.51092 29.2985 1.502C29.1617 1.49309 29.025 1.52186 28.9034 1.58518C28.7818 1.64851 28.6799 1.74397 28.6087 1.86118C28.5375 1.97839 28.4999 2.11287 28.4998 2.25V19.5H19.4998V2.25C19.4998 2.05109 19.4208 1.86032 19.2801 1.71967C19.1395 1.57902 18.9487 1.5 18.7498 1.5H11.2498C11.0509 1.5 10.8601 1.57902 10.7194 1.71967C10.5788 1.86032 10.4998 2.05109 10.4998 2.25V20.1945L8.99978 40.4445C8.99377 40.5327 9.00342 40.6214 9.02828 40.7063ZM35.516 7.55175L32.6135 9.9705L30.6785 4.1655L35.516 7.55175ZM11.9998 20.25V3H17.9998V20.25C17.9998 20.4489 18.0788 20.6397 18.2194 20.7803C18.3601 20.921 18.5509 21 18.7498 21H29.2498C29.4487 21 29.6395 20.921 29.7801 20.7803C29.9208 20.6397 29.9998 20.4489 29.9998 20.25V6.87075L31.5388 11.487C31.5773 11.6029 31.6436 11.7076 31.7318 11.792C31.8201 11.8764 31.9276 11.9381 32.045 11.9715C32.1625 12.0049 32.2864 12.0091 32.4058 11.9837C32.5253 11.9584 32.6367 11.9042 32.7305 11.826L35.9998 9.10125V20.3055L37.4915 40.425L36.1843 45H11.8153L10.508 40.425L11.9998 20.25Z" fill="white"/>
<path d="M34.4211 43.0855L36.0149 39.8972L35.2469 30.688L33.7529 30.8125L34.4849 39.6032L33.0786 42.415L34.4211 43.0855Z" fill="white"/>
<path d="M17.9999 43.4999V41.9999H14.0406L13.5149 40.4219L14.9946 27.8376L13.5051 27.6621L11.9849 40.5779L12.9591 43.4999H17.9999Z" fill="white"/>
<path d="M19.5 42H21V43.5H19.5V42Z" fill="white"/>
<path d="M18.2148 33.2183L25.7136 25.7195L26.7741 26.78L19.2753 34.2788L18.2148 33.2183Z" fill="white"/>
<path d="M24.9639 30.9697L30.9631 24.9705L32.0236 26.031L26.0244 32.0302L24.9639 30.9697Z" fill="white"/>
<path d="M15 6H16.5V4.5H14.25C14.0511 4.5 13.8603 4.57902 13.7197 4.71967C13.579 4.86032 13.5 5.05109 13.5 5.25V9H15V6Z" fill="white"/>
</svg>
