<svg width="48" height="48" viewBox="0 0 48 48" fill="none" xmlns="http://www.w3.org/2000/svg">
<path d="M8.25 5.25V42.75C8.25 42.9489 8.32902 43.1397 8.46967 43.2803C8.61032 43.421 8.80109 43.5 9 43.5H10.5V46.5H19.5V43.5H28.5V46.5H37.5V43.5H39C39.1989 43.5 39.3897 43.421 39.5303 43.2803C39.671 43.1397 39.75 42.9489 39.75 42.75V5.25C39.7488 4.2558 39.3533 3.30267 38.6503 2.59966C37.9473 1.89666 36.9942 1.50119 36 1.5H12C11.0058 1.50119 10.0527 1.89666 9.34966 2.59966C8.64666 3.30267 8.25119 4.2558 8.25 5.25ZM38.25 10.5V12H9.75V10.5H38.25ZM18 45H12V43.5H18V45ZM36 45H30V43.5H36V45ZM38.25 42H9.75V13.5H38.25V42ZM38.25 5.25V9H36.75V5.25C36.75 5.05109 36.671 4.86032 36.5303 4.71967C36.3897 4.57902 36.1989 4.5 36 4.5H30V6H35.25V9H12.75V6H15.75V4.5H12C11.8011 4.5 11.6103 4.57902 11.4697 4.71967C11.329 4.86032 11.25 5.05109 11.25 5.25V9H9.75V5.25C9.75 4.65326 9.98705 4.08097 10.409 3.65901C10.831 3.23705 11.4033 3 12 3H36C36.5967 3 37.169 3.23705 37.591 3.65901C38.0129 4.08097 38.25 4.65326 38.25 5.25Z" fill="white"/>
<path d="M36.75 24V18H30.7058C30.7345 17.751 30.7493 17.5006 30.75 17.25V15H25.5C24.3906 15.0007 23.2985 15.2747 22.3202 15.798C21.342 16.3213 20.5078 17.0776 19.8915 18H11.25V24H36.75ZM35.25 19.5V22.5H28.2337C29.2044 21.7149 29.9389 20.6766 30.3562 19.5H35.25ZM25.5 16.5H29.25V17.25C29.2482 18.6418 28.6945 19.9762 27.7103 20.9603C26.7262 21.9445 25.3918 22.4982 24 22.5H21.975L26.664 19.374L25.8315 18.126L20.25 21.849V21.75C20.2518 20.3582 20.8055 19.0238 21.7897 18.0397C22.7738 17.0555 24.1082 16.5018 25.5 16.5ZM12.75 22.5V19.5H19.1437C18.8847 20.2219 18.7515 20.983 18.75 21.75V22.5H12.75Z" fill="white"/>
<path d="M11.25 25.5H27V27H11.25V25.5Z" fill="white"/>
<path d="M28.5 25.5H36.75V27H28.5V25.5Z" fill="white"/>
<path d="M11.25 15H20.25V16.5H11.25V15Z" fill="white"/>
<path d="M35.25 15H36.75V16.5H35.25V15Z" fill="white"/>
<path d="M32.25 15H33.75V16.5H32.25V15Z" fill="white"/>
<path d="M31.5 31.9395V29.25C31.5 29.0511 31.421 28.8603 31.2803 28.7197C31.1397 28.579 30.9489 28.5 30.75 28.5H17.25C17.0511 28.5 16.8603 28.579 16.7197 28.7197C16.579 28.8603 16.5 29.0511 16.5 29.25V32.25H18V30H30V31.9395L28.2803 30.2197L27.2197 31.2803L30.2197 34.2803C30.3604 34.4209 30.5511 34.4998 30.75 34.4998C30.9489 34.4998 31.1396 34.4209 31.2803 34.2803L34.2803 31.2803L33.2197 30.2197L31.5 31.9395Z" fill="white"/>
<path d="M30 38.2498H18V36.3103L19.7197 38.0301L20.7802 36.9696L17.7802 33.9696C17.6396 33.829 17.4489 33.75 17.25 33.75C17.0511 33.75 16.8604 33.829 16.7197 33.9696L13.7197 36.9696L14.7802 38.0301L16.5 36.3103V38.9998C16.5 39.1988 16.579 39.3895 16.7196 39.5302C16.8603 39.6708 17.0511 39.7498 17.25 39.7498H30.75C30.9489 39.7498 31.1397 39.6708 31.2803 39.5302C31.421 39.3895 31.5 39.1988 31.5 38.9998V35.9998H30V38.2498Z" fill="white"/>
<path d="M17.25 4.5H18.75V6H17.25V4.5Z" fill="white"/>
</svg>
