<svg width="40" height="40" viewBox="0 0 40 40" fill="none" xmlns="http://www.w3.org/2000/svg">
<path d="M25.0525 34.5254C24.7036 34.5254 24.4209 34.808 24.4209 35.157C24.4209 35.5059 24.7037 35.7885 25.0525 35.7885H28.4209C28.7697 35.7885 29.0525 35.5058 29.0525 35.157C29.0525 34.808 28.7696 34.5254 28.4209 34.5254H25.0525Z" fill="#293AA4"/>
<path d="M25.0525 30.7368H28.4209C28.7697 30.7368 29.0525 30.4541 29.0525 30.1052C29.0525 29.7563 28.7696 29.4736 28.4209 29.4736H25.0525C24.7036 29.4736 24.4209 29.7563 24.4209 30.1052C24.4208 30.454 24.7036 30.7368 25.0525 30.7368Z" fill="#293AA4"/>
<path d="M31.7896 3.36816H30.9475C30.5987 3.36816 30.3159 3.6509 30.3159 3.99973C30.3159 4.34855 30.5987 4.63129 30.9475 4.63129H31.7896C32.1384 4.63129 32.4212 4.34855 32.4212 3.99973C32.4212 3.6509 32.1384 3.36816 31.7896 3.36816Z" fill="#293AA4"/>
<path d="M22.5264 32H21.6843C21.3355 32 21.0527 32.2827 21.0527 32.6316C21.0527 32.9805 21.3355 33.2631 21.6843 33.2631H22.5264C22.8752 33.2631 23.158 32.9805 23.158 32.6316C23.158 32.2827 22.8752 32 22.5264 32Z" fill="#293AA4"/>
<path d="M22.5264 34.5254H21.6843C21.3355 34.5254 21.0527 34.808 21.0527 35.157C21.0527 35.5059 21.3355 35.7885 21.6843 35.7885H22.5264C22.8752 35.7885 23.158 35.5058 23.158 35.157C23.158 34.808 22.8752 34.5254 22.5264 34.5254Z" fill="#293AA4"/>
<path d="M32.4209 32.6316C32.4209 32.2827 32.1381 32 31.7893 32H25.0525C24.7036 32 24.4209 32.2827 24.4209 32.6316C24.4209 32.9804 24.7037 33.2631 25.0525 33.2631H31.7893C32.1382 33.2631 32.4209 32.9805 32.4209 32.6316Z" fill="#293AA4"/>
<path d="M29.263 38.7369H6.52623C5.94576 38.7369 5.47357 38.2647 5.47357 37.6842V2.31578C5.47357 1.73531 5.94576 1.26312 6.52623 1.26312H8.21045C8.55928 1.26312 8.84201 0.980391 8.84201 0.631562C8.84201 0.282734 8.55928 0 8.21045 0H6.52623C5.24928 0 4.21045 1.03891 4.21045 2.31578V37.6842C4.21045 38.9611 5.24928 40 6.52623 40H29.2631C29.6119 40 29.8947 39.7173 29.8947 39.3684C29.8947 39.0195 29.6119 38.7369 29.263 38.7369Z" fill="#293AA4"/>
<path d="M16.6317 7.5791C16.406 7.5791 16.1976 7.69949 16.0848 7.89488L12.8987 13.4134H9.47385C9.12502 13.4134 8.84229 13.6961 8.84229 14.045C8.84229 14.3939 9.1251 14.6765 9.47385 14.6765H12.8987L16.0848 20.195C16.1976 20.3904 16.406 20.5108 16.6317 20.5108H23.3686C23.5943 20.5108 23.8028 20.3904 23.9156 20.195L27.1017 14.6765H30.5265C30.8753 14.6765 31.1581 14.3939 31.1581 14.045C31.1581 13.696 30.8752 13.4134 30.5265 13.4134H27.1017L23.9156 7.89488C23.8028 7.69949 23.5943 7.5791 23.3686 7.5791H16.6317ZM23.0039 19.2476H16.9963L14.3572 14.6765H16.4771C16.7763 16.3498 18.2423 17.6239 20.0003 17.6239C21.7582 17.6239 23.2242 16.3497 23.5234 14.6765H25.6431L23.0039 19.2476ZM22.2284 14.6765C21.9528 15.6475 21.0582 16.3607 20.0002 16.3607C18.9421 16.3607 18.0475 15.6475 17.772 14.6765H22.2284ZM17.772 13.4133C18.0475 12.4424 18.9421 11.7291 20.0002 11.7291C21.0582 11.7291 21.9528 12.4424 22.2284 13.4133H17.772ZM25.643 13.4133H23.5232C23.2241 11.74 21.7581 10.466 20.0001 10.466C18.2421 10.466 16.7762 11.7401 16.477 13.4133H14.3572L16.9963 8.84223H23.0039L25.643 13.4133Z" fill="#293AA4"/>
<path d="M24.2097 7.1577C24.4138 7.1577 24.6141 7.05895 24.7358 6.87637L26.2325 4.63129H28.4208C28.7696 4.63129 29.0524 4.34856 29.0524 3.99973C29.0524 3.6509 28.7696 3.36816 28.4208 3.36816H25.8945C25.6833 3.36816 25.486 3.47371 25.369 3.64941L23.6848 6.17574C23.4913 6.4659 23.5696 6.85809 23.8599 7.05153C23.9677 7.12332 24.0893 7.1577 24.2097 7.1577Z" fill="#293AA4"/>
<path d="M8.21066 7.15766H10.737C11.0858 7.15766 11.3686 6.87492 11.3686 6.52609C11.3686 6.17727 11.0857 5.89453 10.737 5.89453H8.21066C7.86184 5.89453 7.5791 6.17727 7.5791 6.52609C7.5791 6.87492 7.86184 7.15766 8.21066 7.15766Z" fill="#293AA4"/>
<path d="M9.05277 23.5791H8.21066C7.86184 23.5791 7.5791 23.8618 7.5791 24.2107C7.5791 24.5596 7.86191 24.8422 8.21066 24.8422H9.05277C9.4016 24.8422 9.68434 24.5596 9.68434 24.2107C9.68434 23.8618 9.40152 23.5791 9.05277 23.5791Z" fill="#293AA4"/>
<path d="M9.05277 29.4736H8.21066C7.86184 29.4736 7.5791 29.7563 7.5791 30.1052C7.5791 30.4541 7.86191 30.7368 8.21066 30.7368H9.05277C9.4016 30.7368 9.68434 30.4541 9.68434 30.1052C9.68434 29.7564 9.40152 29.4736 9.05277 29.4736Z" fill="#293AA4"/>
<path d="M9.05277 34.5254H8.21066C7.86184 34.5254 7.5791 34.808 7.5791 35.157C7.5791 35.5059 7.86191 35.7885 8.21066 35.7885H9.05277C9.4016 35.7885 9.68434 35.5058 9.68434 35.157C9.68434 34.808 9.40152 34.5254 9.05277 34.5254Z" fill="#293AA4"/>
<path d="M13.2628 3.36816H8.21018C7.86135 3.36816 7.57861 3.6509 7.57861 3.99973C7.57861 4.34855 7.86143 4.63129 8.21018 4.63129H13.2628C13.6117 4.63129 13.8944 4.34855 13.8944 3.99973C13.8944 3.6509 13.6117 3.36816 13.2628 3.36816Z" fill="#293AA4"/>
<path d="M33.4733 0H10.7365C10.3877 0 10.105 0.282734 10.105 0.631562C10.105 0.980391 10.3878 1.26312 10.7365 1.26312H33.4734C34.0539 1.26312 34.5261 1.73531 34.5261 2.31578V37.6842C34.5261 38.2647 34.0539 38.7369 33.4734 38.7369H31.7892C31.4404 38.7369 31.1576 39.0196 31.1576 39.3684C31.1576 39.7173 31.4404 40 31.7892 40H33.4734C34.7504 40 35.7892 38.9611 35.7892 37.6842V2.31578C35.7891 1.03891 34.7503 0 33.4733 0Z" fill="#293AA4"/>
<path d="M22.5264 29.4736H21.6843C21.3355 29.4736 21.0527 29.7563 21.0527 30.1052C21.0527 30.4541 21.3355 30.7368 21.6843 30.7368H22.5264C22.8752 30.7368 23.158 30.4541 23.158 30.1052C23.158 29.7564 22.8752 29.4736 22.5264 29.4736Z" fill="#293AA4"/>
<path d="M18.9473 32.6316C18.9473 32.2827 18.6645 32 18.3157 32H11.5788C11.23 32 10.9473 32.2827 10.9473 32.6316C10.9473 32.9804 11.2301 33.2631 11.5788 33.2631H18.3157C18.6645 33.2631 18.9473 32.9805 18.9473 32.6316Z" fill="#293AA4"/>
<path d="M11.5788 34.5254C11.23 34.5254 10.9473 34.808 10.9473 35.157C10.9473 35.5059 11.2301 35.7885 11.5788 35.7885H14.9473C15.2961 35.7885 15.5788 35.5058 15.5788 35.157C15.5788 34.808 15.296 34.5254 14.9473 34.5254H11.5788Z" fill="#293AA4"/>
<path d="M11.5788 24.8422H14.1052C14.3163 24.8422 14.5136 24.7367 14.6306 24.561L16.3148 22.0347C16.5084 21.7445 16.4299 21.3523 16.1397 21.1589C15.8495 20.9654 15.4573 21.0437 15.2639 21.334L13.7671 23.5791H11.5788C11.23 23.5791 10.9473 23.8618 10.9473 24.2107C10.9472 24.5595 11.23 24.8422 11.5788 24.8422Z" fill="#293AA4"/>
<path d="M9.05277 32H8.21066C7.86184 32 7.5791 32.2827 7.5791 32.6316C7.5791 32.9805 7.86191 33.2631 8.21066 33.2631H9.05277C9.4016 33.2631 9.68434 32.9805 9.68434 32.6316C9.68434 32.2827 9.40152 32 9.05277 32Z" fill="#293AA4"/>
<path d="M11.5788 30.7368H14.9473C15.2961 30.7368 15.5788 30.4541 15.5788 30.1052C15.5788 29.7563 15.296 29.4736 14.9473 29.4736H11.5788C11.23 29.4736 10.9473 29.7563 10.9473 30.1052C10.9472 30.454 11.23 30.7368 11.5788 30.7368Z" fill="#293AA4"/>
</svg>
