<svg width="48" height="48" viewBox="0 0 48 48" fill="none" xmlns="http://www.w3.org/2000/svg">
<path d="M4.93178 44.411C4.96888 44.4673 5.01066 44.5208 5.05556 44.5707C5.12077 44.634 5.19613 44.6851 5.27891 44.7218C5.38824 44.7609 5.50186 44.7867 5.61705 44.7988H20.0113C20.4529 44.7988 20.8109 44.4407 20.8109 43.9991V36.802C20.8109 36.3604 20.4529 36.0023 20.0113 36.0023H10.7439L12.2546 33.1363L13.7497 34.631C13.9645 34.8465 14.2831 34.9219 14.5717 34.8247C14.8602 34.7278 15.0687 34.4752 15.1093 34.1734L16.804 21.7159C16.8403 21.4453 16.736 21.1747 16.5271 20.9982C16.3182 20.8221 16.034 20.7647 15.7731 20.8459L5.0294 24.2566C4.7631 24.341 4.56045 24.5581 4.49446 24.8295C4.42808 25.1005 4.50812 25.3867 4.70531 25.5842L6.47101 27.3492L0.185643 35.5146C-0.0150571 35.7751 -0.0357519 36.1319 0.133711 36.4143L4.93178 44.411ZM19.2116 37.6017V43.1994H6.94386L9.90244 37.6017H19.2116ZM8.16642 27.7658C8.41163 27.4472 8.38235 26.9966 8.09848 26.7123L6.7662 25.3828L15.0535 22.7533L13.7435 32.3596L12.624 31.2402C12.4444 31.0605 12.1902 30.9766 11.9387 31.0145C11.6877 31.0523 11.4694 31.2074 11.3507 31.4323L5.57215 42.3708L1.785 36.0581L8.16642 27.7658Z" fill="white"/>
<path d="M31.3875 27.7119L37.7896 35.5376L34.4055 36.5333V34.4029C34.4055 34.1109 34.2465 33.8422 33.9908 33.7016C33.735 33.5611 33.4226 33.5712 33.1763 33.7278L24.3798 39.3256C24.1631 39.463 24.0253 39.6961 24.0093 39.9523C23.9932 40.2084 24.1014 40.4567 24.3001 40.6196L33.0966 47.8167C33.3356 48.0143 33.6671 48.0556 33.9478 47.9233C34.2282 47.7905 34.4066 47.5078 34.4055 47.1978V44.7987H44.8013C45.1738 44.7991 45.4971 44.5418 45.581 44.1791L47.9801 33.7833C47.9855 33.7559 47.993 33.656 47.9937 33.6329C47.9988 33.5427 47.9887 33.4525 47.9633 33.3658C47.9633 33.3576 47.9551 33.3506 47.9527 33.3424C47.9121 33.2518 47.8637 33.1648 47.8075 33.0828L38.2113 21.8873C37.9236 21.5518 37.4187 21.5132 37.0837 21.801L31.4859 26.599C31.1564 26.8817 31.1126 27.3757 31.3875 27.7119ZM44.1656 43.1994H33.6058C33.1642 43.1994 32.8061 43.5574 32.8061 43.9991V45.5106L26.1689 40.0807L32.8061 35.8582V37.6016C32.8061 37.8535 32.9252 38.0909 33.1267 38.2416C33.3285 38.3927 33.5898 38.4396 33.8315 38.3685L46.1136 34.7563L44.1656 43.1994ZM37.5179 23.5354L45.788 33.1851L39.4554 35.0476L33.1204 27.3042L37.5179 23.5354Z" fill="white"/>
<path d="M17.0804 18.2079C17.2272 18.3379 17.4162 18.4098 17.6122 18.4094H17.6755C17.8941 18.3934 18.0964 18.288 18.2354 18.1185L24.0401 11.0237L25.2021 13.0924L23.0198 13.6379C22.7211 13.7125 22.4919 13.9514 22.4302 14.2533C22.3681 14.5547 22.4849 14.8647 22.7301 15.0506L32.3262 22.2477C32.5347 22.4043 32.8061 22.4492 33.0537 22.3687C33.3012 22.2883 33.4941 22.0923 33.5707 21.8432L36.7694 11.4473C36.8545 11.1713 36.7838 10.871 36.5851 10.6613C36.3863 10.452 36.0899 10.3661 35.8096 10.4364L33.2997 11.0635L29.2876 0.531817C29.1693 0.221395 28.8714 0.0163996 28.5391 0.0167901L19.2116 0C19.1971 0 19.1269 0.0113235 19.1054 0.0144473C19.0296 0.0245995 18.9558 0.0452943 18.8863 0.0761413C18.8703 0.0839506 18.8535 0.0878552 18.8375 0.096836C18.7516 0.151502 18.6712 0.213976 18.5974 0.28387L9.80091 10.6957C9.52056 11.0272 9.55609 11.5223 9.88096 11.8105L17.0804 18.2079ZM27.9866 1.61615L32.0584 12.2974C32.2028 12.6762 32.6074 12.887 33.0006 12.7886L34.8237 12.3325L32.3758 20.2872L25.0342 14.7788L26.6031 14.3872C26.8448 14.3267 27.0448 14.1568 27.1432 13.9276C27.2419 13.6988 27.2283 13.4368 27.1061 13.2193L20.579 1.6017L27.9866 1.61615ZM19.0788 2.19755L23.1947 9.52429L17.517 16.4598L11.5291 11.1322L19.0788 2.19755Z" fill="white"/>
</svg>
