<svg width="48" height="48" viewBox="0 0 48 48" fill="none" xmlns="http://www.w3.org/2000/svg">
<path d="M24 1.5C19.5499 1.5 15.1998 2.8196 11.4997 5.29193C7.79957 7.76427 4.91569 11.2783 3.21272 15.3896C1.50975 19.501 1.06417 24.025 1.93234 28.3895C2.80051 32.7541 4.94343 36.7632 8.09011 39.9099C11.2368 43.0566 15.2459 45.1995 19.6105 46.0677C23.9751 46.9358 28.4991 46.4903 32.6104 44.7873C36.7217 43.0843 40.2357 40.2004 42.7081 36.5003C45.1804 32.8002 46.5 28.4501 46.5 24C46.4933 18.0347 44.1206 12.3157 39.9025 8.09755C35.6844 3.87945 29.9653 1.50675 24 1.5ZM24 45C19.8466 45 15.7865 43.7684 12.333 41.4609C8.8796 39.1534 6.18798 35.8736 4.59854 32.0364C3.0091 28.1991 2.59323 23.9767 3.40352 19.9031C4.21381 15.8295 6.21386 12.0877 9.15077 9.15076C12.0877 6.21385 15.8295 4.2138 19.9031 3.40351C23.9767 2.59322 28.1991 3.00909 32.0364 4.59853C35.8736 6.18797 39.1534 8.87959 41.4609 12.333C43.7684 15.7865 45 19.8466 45 24C44.9937 29.5676 42.7791 34.9053 38.8422 38.8422C34.9053 42.7791 29.5676 44.9936 24 45Z" fill="white"/>
<path d="M24 4.5C20.1433 4.5 16.3731 5.64366 13.1664 7.78634C9.95963 9.92903 7.46027 12.9745 5.98436 16.5377C4.50845 20.1008 4.12228 24.0216 4.8747 27.8043C5.62711 31.5869 7.4843 35.0615 10.2114 37.7886C12.9385 40.5157 16.4131 42.3729 20.1957 43.1253C23.9784 43.8777 27.8992 43.4916 31.4623 42.0156C35.0255 40.5397 38.071 38.0404 40.2137 34.8336C42.3563 31.6269 43.5 27.8567 43.5 24C43.4942 18.83 41.4379 13.8735 37.7822 10.2178C34.1265 6.56206 29.17 4.50576 24 4.5ZM24 42C20.4399 42 16.9598 40.9443 13.9997 38.9665C11.0397 36.9886 8.73255 34.1774 7.37018 30.8883C6.0078 27.5992 5.65134 23.98 6.34587 20.4884C7.04041 16.9967 8.75474 13.7894 11.2721 11.2721C13.7894 8.75473 16.9967 7.0404 20.4884 6.34586C23.98 5.65133 27.5992 6.00779 30.8883 7.37017C34.1774 8.73255 36.9886 11.0397 38.9664 13.9997C40.9443 16.9598 42 20.4399 42 24C41.9944 28.7722 40.0962 33.3473 36.7218 36.7218C33.3473 40.0962 28.7722 41.9944 24 42Z" fill="white"/>
<path d="M26.0424 9.1559L27.4502 8.0999L26.5502 6.8999L22.9502 9.5999L25.6502 13.1999L26.8502 12.2999L25.5752 10.5997C27.5659 10.8341 29.4795 11.5088 31.1771 12.5748C32.8747 13.6407 34.3137 15.0712 35.3897 16.7625C36.4656 18.4537 37.1516 20.3633 37.3979 22.3526C37.6441 24.3419 37.4444 26.3611 36.8132 28.2637L38.2382 28.7362C38.9318 26.6463 39.1567 24.4293 38.8968 22.2427C38.6369 20.0561 37.8987 17.9536 36.7345 16.0845C35.5703 14.2154 34.0088 12.6257 32.1609 11.4282C30.313 10.2307 28.224 9.45492 26.0424 9.1559Z" fill="white"/>
<path d="M12.1498 25.8002L10.7953 27.6062C10.5729 26.4176 10.4739 25.2092 10.4998 24.0002C10.496 21.1644 11.3866 18.3997 13.0448 16.0993C14.703 13.7989 17.0445 12.08 19.7361 11.1872L19.2636 9.76221C16.2725 10.7542 13.6706 12.6642 11.8278 15.2204C9.9851 17.7767 8.99549 20.849 8.9998 24.0002C8.97528 25.279 9.07854 26.5571 9.30805 27.8155L7.83505 27.0752L7.16455 28.4252L10.7248 30.2012L13.3498 26.7002L12.1498 25.8002Z" fill="white"/>
<path d="M32.2498 33H34.3363C33.0093 34.4128 31.4084 35.5404 29.6313 36.3141C27.8541 37.0878 25.938 37.4913 23.9998 37.5C22.1533 37.5076 20.3252 37.1327 18.6308 36.3989C16.9363 35.6651 15.4122 34.5882 14.1545 33.2362L13.061 34.2638C14.466 35.7561 16.1609 36.946 18.0418 37.7604C19.9227 38.5748 21.9501 38.9966 23.9998 39C26.0998 38.9942 28.1775 38.5675 30.1098 37.745C32.0421 36.9224 33.7898 35.7209 35.2498 34.2113V36H36.7498V31.5H32.2498V33Z" fill="white"/>
<path d="M22.3636 30C22.7151 30 23 29.7202 23 29.375C23 29.0298 22.7151 28.75 22.3636 28.75H18.3022L19.2607 26.868L19.9251 27.847C20.1202 28.1342 20.5151 28.2117 20.8075 28.02C21.0999 27.8284 21.1788 27.4402 20.984 27.153L19.7113 25.278C19.6628 25.2225 19.6097 25.1706 19.5528 25.123C19.5401 25.1144 19.5286 25.1044 19.5152 25.0961C19.4549 25.0592 19.3891 25.0327 19.3198 25.0174C19.2741 25.0092 19.2281 25.0034 19.1818 25H16.6364C16.2849 25 16 25.2798 16 25.625C16 25.9702 16.2849 26.25 16.6364 26.25H18.1521L16.7032 29.0958C16.6044 29.2896 16.6152 29.5197 16.7311 29.7037C16.847 29.888 17.0521 30 17.2727 30H22.3636Z" fill="white"/>
<path d="M28.3274 25.0685C28.0309 25.2254 27.9104 25.608 28.0587 25.9225L29.4253 28.8206H26.7164L27.2946 27.901C27.4784 27.6086 27.404 27.2132 27.1282 27.0181C26.8524 26.8229 26.4799 26.9018 26.2958 27.1943L25.0954 29.1038L25.091 29.1134C25.0564 29.1721 25.0312 29.2368 25.0169 29.3042C25.0125 29.3229 25.0089 29.3415 25.0066 29.3605C24.9978 29.4223 24.9978 29.4851 25.0066 29.547V29.5805C25.0186 29.6414 25.0388 29.6999 25.0664 29.7542C25.0725 29.7657 25.0816 29.7748 25.0881 29.7863C25.0948 29.7978 25.0925 29.8002 25.0966 29.8071L26.297 31.7166C26.4811 32.009 26.8536 32.088 27.1293 31.8931C27.4054 31.6979 27.4799 31.3026 27.2958 31.0101L26.7158 30.0936H30.3966C30.6049 30.0949 30.7993 29.9811 30.9095 29.7934C31.0196 29.6054 31.0299 29.3704 30.9367 29.1728L29.136 25.3538C29.0648 25.2018 28.9397 25.0862 28.7879 25.0324C28.6361 24.979 28.4702 24.992 28.3274 25.0685Z" fill="white"/>
<path d="M20.3038 23.8933C20.6048 24.0986 21.0015 23.9988 21.1896 23.6698L23.8587 19.0069L25.9156 22.5959H24.5016C24.1466 22.5959 23.8587 22.9102 23.8587 23.2979C23.8587 23.6856 24.1466 23.9999 24.5016 23.9999H27.0728C27.1861 23.9995 27.2972 23.9656 27.3942 23.9015C27.3999 23.8981 27.4237 23.8792 27.4316 23.8734C27.4922 23.8192 27.5487 23.7596 27.6004 23.6952L27.6064 23.6876L28.892 21.5817C29.0888 21.2592 29.0091 20.8232 28.7138 20.6079C28.4184 20.3927 28.0192 20.4797 27.8224 20.8023L27.0888 22.0043L24.4036 17.3102C24.2787 17.1159 24.075 17 23.8575 17C23.64 17 23.436 17.1159 23.311 17.3102L20.097 22.926C20.0069 23.084 19.978 23.2749 20.0169 23.4563C20.0555 23.6379 20.1588 23.7949 20.3038 23.8933Z" fill="white"/>
<path d="M13.5 20.25H15V21.75H13.5V20.25Z" fill="white"/>
<path d="M27.75 14.25H29.25V15.75H27.75V14.25Z" fill="white"/>
<path d="M34 23H35.5V24.5H34V23Z" fill="white"/>
</svg>
