<svg width="48" height="48" viewBox="0 0 48 48" fill="none" xmlns="http://www.w3.org/2000/svg">
<path d="M12.8001 40.1762V44C12.8028 46.2082 14.5919 47.9973 16.8001 48H31.2001C33.4083 47.9973 35.1974 46.2082 35.2001 44V40.1762C35.6767 39.7551 35.9638 39.1598 35.9966 38.525C36.0298 37.8898 35.8063 37.2684 35.3763 36.8C36.2083 35.8957 36.2083 34.5043 35.3763 33.6C35.8063 33.1316 36.0298 32.5102 35.9966 31.875C35.9638 31.2402 35.6767 30.6449 35.2001 30.2238V20.8527C35.195 16.4855 34.1782 12.1789 32.2298 8.27031C32.1841 8.1793 32.1212 8.09805 32.045 8.03047L29.3075 5.6H29.6001C30.0419 5.6 30.4001 5.2418 30.4001 4.8V0.8C30.4001 0.358203 30.0419 0 29.6001 0H18.4001C17.9583 0 17.6001 0.358203 17.6001 0.8V4.8C17.6001 5.2418 17.9583 5.6 18.4001 5.6H18.6931L15.9552 8.02969C15.879 8.09727 15.8161 8.17852 15.7704 8.26953C13.822 12.1785 12.8052 16.4852 12.8001 20.8527V30.2238C12.3235 30.6449 12.0364 31.2402 12.0036 31.875C11.9704 32.5102 12.1942 33.1316 12.6243 33.6C11.7919 34.5043 11.7919 35.8957 12.6243 36.8C12.1942 37.2684 11.9704 37.8898 12.0036 38.525C12.0364 39.1598 12.3235 39.7551 12.8001 40.1762ZM13.6001 35.2C13.6001 34.7582 13.9583 34.4 14.4001 34.4H33.6001C34.0419 34.4 34.4001 34.7582 34.4001 35.2C34.4001 35.6418 34.0419 36 33.6001 36H14.4001C13.9583 36 13.6001 35.6418 13.6001 35.2ZM13.6001 32C13.6001 31.5582 13.9583 31.2 14.4001 31.2H33.6001C34.0419 31.2 34.4001 31.5582 34.4001 32C34.4001 32.4418 34.0419 32.8 33.6001 32.8H14.4001C13.9583 32.8 13.6001 32.4418 13.6001 32ZM33.6001 37.6C34.0419 37.6 34.4001 37.9582 34.4001 38.4C34.4001 38.8418 34.0419 39.2 33.6001 39.2H14.4001C13.9583 39.2 13.6001 38.8418 13.6001 38.4C13.6001 37.9582 13.9583 37.6 14.4001 37.6H33.6001ZM33.6001 44C33.6001 45.3254 32.5255 46.4 31.2001 46.4H16.8001C15.4747 46.4 14.4001 45.3254 14.4001 44V40.8H33.6001V44ZM19.2001 1.6H28.8001V4H19.2001V1.6ZM14.4001 20.8527C14.4048 16.7848 15.3396 12.7711 17.1337 9.11992L21.104 5.6H26.8962L30.8665 9.11992C32.6606 12.7711 33.5958 16.7848 33.6001 20.8527V29.6H14.4001V20.8527Z" fill="white"/>
<path d="M24.5508 13.0192C24.2422 12.7267 23.7586 12.7267 23.45 13.0192C22.9332 13.5099 18.4004 17.8888 18.4004 20.8001C18.4004 23.8931 20.9078 26.4001 24.0004 26.4001C27.0934 26.4001 29.6004 23.8931 29.6004 20.8001C29.6004 17.8888 25.0676 13.5099 24.5508 13.0192ZM24.0004 24.8001C21.7922 24.7974 20.0031 23.0083 20.0004 20.8001C20.0004 19.2888 22.2652 16.4802 24.0004 14.72C25.7355 16.4802 28.0004 19.2872 28.0004 20.8001C27.9977 23.0083 26.2086 24.7974 24.0004 24.8001Z" fill="white"/>
<path d="M24.8 44.8002H31.2C31.6418 44.8002 32 44.442 32 44.0002C32 43.5584 31.6418 43.2002 31.2 43.2002H24.8C24.3582 43.2002 24 43.5584 24 44.0002C24 44.442 24.3582 44.8002 24.8 44.8002Z" fill="white"/>
<path d="M20.8 44.8002H21.6C22.0418 44.8002 22.4 44.442 22.4 44.0002C22.4 43.5584 22.0418 43.2002 21.6 43.2002H20.8C20.3582 43.2002 20 43.5584 20 44.0002C20 44.442 20.3582 44.8002 20.8 44.8002Z" fill="white"/>
</svg>
