<svg width="40" height="40" viewBox="0 0 40 40" fill="none" xmlns="http://www.w3.org/2000/svg">
<g clip-path="url(#clip0)">
<path d="M37.6843 0H8.21066C7.86184 0 7.5791 0.282734 7.5791 0.631562C7.5791 0.980391 7.86191 1.26312 8.21066 1.26312H37.6843C38.2648 1.26312 38.737 1.73531 38.737 2.31578V22.7368H35.1581C34.8093 22.7368 34.5265 23.0195 34.5265 23.3684C34.5265 23.7173 34.8093 23.9999 35.1581 23.9999H38.737V30.1052C38.737 30.4798 38.5351 30.8295 38.2103 31.0173C37.9084 31.192 37.8051 31.5784 37.9798 31.8803C38.0968 32.0826 38.3089 32.1957 38.5271 32.1957C38.6343 32.1957 38.7432 32.1684 38.8428 32.1107C39.5566 31.6977 40.0002 30.9292 40.0002 30.1052V2.31578C40.0001 1.03891 38.9613 0 37.6843 0Z" fill="#293AA4"/>
<path d="M32.8423 27.5785C32.8423 28.8554 33.8811 29.8943 35.1581 29.8943C36.435 29.8943 37.4739 28.8554 37.4739 27.5785C37.4739 26.3016 36.435 25.2627 35.1581 25.2627C33.8811 25.2627 32.8423 26.3016 32.8423 27.5785ZM35.1581 26.5259C35.7385 26.5259 36.2107 26.9981 36.2107 27.5786C36.2107 28.159 35.7385 28.6312 35.1581 28.6312C34.5776 28.6312 34.1054 28.159 34.1054 27.5786C34.1054 26.9981 34.5776 26.5259 35.1581 26.5259Z" fill="#293AA4"/>
<path d="M13.8948 31.7895C13.8948 31.4405 13.612 31.1579 13.2632 31.1579H2.31578C1.73531 31.1579 1.26312 30.6857 1.26312 30.1052V24H16.6316C16.9804 24 17.2631 23.7173 17.2631 23.3684C17.2631 23.0195 16.9803 22.7369 16.6316 22.7369H1.26312V2.31578C1.26312 1.73531 1.73531 1.26312 2.31578 1.26312H5.68422C6.03305 1.26312 6.31578 0.980391 6.31578 0.631562C6.31578 0.282734 6.03305 0 5.68422 0H2.31578C1.03883 0 0 1.03891 0 2.31578V30.1052C0 31.3821 1.03883 32.421 2.31578 32.421H13.2631C13.612 32.421 13.8948 32.1384 13.8948 31.7895Z" fill="#293AA4"/>
<path d="M35.4651 31.3064L29.8946 29.6352V27.6598C30.3464 27.4453 30.771 27.1705 31.1558 26.8404C32.1857 25.9569 32.8664 24.7316 33.0728 23.3905L33.7747 18.8275C34.4597 18.5651 34.9473 17.9008 34.9473 17.1247C34.9473 16.6379 34.7578 16.1802 34.4136 15.836C34.4136 15.836 34.4136 15.836 34.4136 15.8359L33.1836 14.606L32.3143 11.998C31.8115 10.49 30.4761 9.43801 28.9196 9.28277C28.6868 8.77473 28.1734 8.4209 27.5789 8.4209H24.2105C23.6161 8.4209 23.1027 8.77473 22.8699 9.28277C21.3133 9.43801 19.9779 10.49 19.4752 11.998L18.6059 14.606L17.3759 15.8359C17.0317 16.1801 16.8421 16.6379 16.8421 17.1247C16.8421 17.9008 17.3296 18.5651 18.0146 18.8275L18.7166 23.3905C18.9229 24.7317 19.6038 25.9569 20.6336 26.8404C21.0184 27.1704 21.443 27.4451 21.8947 27.6598V29.6352L16.3243 31.3064C14.6193 31.8179 13.4736 33.3576 13.4736 35.1377V38.5262C13.4736 39.3387 14.1348 39.9998 14.9473 39.9998H30.1052C30.454 39.9998 30.7368 39.7172 30.7368 39.3683C30.7368 39.0194 30.4539 38.7367 30.1052 38.7367H20.2106V36.8419C20.2106 36.493 19.9278 36.2104 19.579 36.2104C19.2303 36.2104 18.9475 36.493 18.9475 36.8419V38.7367H14.9475C14.8314 38.7367 14.7369 38.6423 14.7369 38.5262V35.1377C14.7369 33.9198 15.5207 32.8662 16.6873 32.5162L22.619 30.7367H29.1705L35.1023 32.5162C36.2689 32.8662 37.0527 33.9198 37.0527 35.1377V38.5262C37.0527 38.6423 36.9582 38.7367 36.8421 38.7367H32.8421V36.8419C32.8421 36.493 32.5593 36.2104 32.2106 36.2104C31.8618 36.2104 31.579 36.493 31.579 36.8419V39.3683C31.579 39.7172 31.8618 39.9998 32.2106 39.9998H36.8421C37.6547 39.9998 38.3158 39.3387 38.3158 38.5262V35.1377C38.3158 33.3576 37.1702 31.8179 35.4651 31.3064ZM18.6647 17.684C18.3563 17.684 18.1054 17.433 18.1054 17.1246C18.1054 16.9752 18.1636 16.8347 18.2692 16.7291L19.6046 15.3938C19.6739 15.3244 19.7262 15.2399 19.7571 15.1469L20.6736 12.3975C20.9893 11.4504 21.7849 10.7663 22.737 10.5782V13.263C22.737 13.6119 23.0198 13.8946 23.3686 13.8946C23.7174 13.8946 24.0001 13.6118 24.0001 13.263V9.89457C24.0001 9.77848 24.0946 9.68402 24.2107 9.68402H27.5791C27.6951 9.68402 27.7896 9.7784 27.7896 9.89457V13.263C27.7896 13.6119 28.0725 13.8946 28.4212 13.8946C28.77 13.8946 29.0528 13.6118 29.0528 13.263V10.5783C30.0049 10.7664 30.8003 11.4505 31.116 12.3976L32.0325 15.147C32.0635 15.24 32.1157 15.3246 32.185 15.3939L33.5204 16.7291C33.6245 16.8333 33.6843 16.9775 33.6843 17.1247C33.6843 17.4332 33.4334 17.684 33.125 17.684V17.684H18.6647ZM27.4549 28.2104C27.8528 28.2104 28.2472 28.1685 28.6318 28.0871V29.4735H23.1581V28.0871C23.5426 28.1685 23.9369 28.2104 24.335 28.2104H25.0529C25.4017 28.2104 25.6844 27.9277 25.6844 27.5788C25.6844 27.2299 25.4016 26.9472 25.0529 26.9472H24.335C22.1371 26.9472 20.2994 25.3706 19.9653 23.1983L19.3112 18.9472H32.4786L31.8246 23.1983C31.4904 25.3705 29.6527 26.9472 27.4549 26.9472C27.1061 26.9472 26.8233 27.2299 26.8233 27.5788C26.8232 27.9276 27.106 28.2104 27.4549 28.2104Z" fill="#293AA4"/>
<path d="M4.84215 25.2627C3.5652 25.2627 2.52637 26.3016 2.52637 27.5785C2.52637 28.8554 3.5652 29.8943 4.84215 29.8943H10.7369C12.0139 29.8943 13.0527 28.8554 13.0527 27.5785C13.0527 26.3016 12.0139 25.2627 10.7369 25.2627H4.84215ZM11.7895 27.5785C11.7895 28.1589 11.3173 28.6311 10.7368 28.6311H4.84215C4.26168 28.6311 3.78949 28.1589 3.78949 27.5785C3.78949 26.998 4.26168 26.5258 4.84215 26.5258H10.7369C11.3173 26.5259 11.7895 26.9981 11.7895 27.5785Z" fill="#293AA4"/>
<path d="M11.9997 3.36816H6.1049C5.52443 3.36816 5.05225 3.84035 5.05225 4.42082V6.94715C5.05225 7.52762 5.52443 7.9998 6.1049 7.9998H8.42068V9.50426L5.63436 10.8975C5.27529 11.0768 5.05232 11.4377 5.05232 11.839V12.1607C5.05232 12.5621 5.27529 12.9229 5.6342 13.1022L8.42076 14.4955V15.9997H6.1049C5.52443 15.9997 5.05225 16.4719 5.05225 17.0524V19.5787C5.05225 20.1592 5.52443 20.6314 6.1049 20.6314H11.9997C12.5801 20.6314 13.0523 20.1592 13.0523 19.5787V18.9471H14.9471C15.2959 18.9471 15.5787 18.6645 15.5787 18.3156C15.5787 17.9667 15.2958 17.684 14.9471 17.684H13.0523V17.0525C13.0523 16.472 12.5801 15.9998 11.9997 15.9998H9.68389V14.4954L12.4702 13.1021C12.8293 12.9228 13.0522 12.5619 13.0522 12.1606V11.8389C13.0522 11.4375 12.8293 11.0767 12.4704 10.8974L9.68381 9.5041V7.99973H11.9997C12.5801 7.99973 13.0523 7.52754 13.0523 6.94707V6.31551H33.6839V12.4207C33.6839 12.7696 33.9667 13.0523 34.3154 13.0523C34.6643 13.0523 34.947 12.7696 34.947 12.4207V5.68395C34.947 5.33504 34.6642 5.05238 34.3154 5.05238H13.0523V4.42082C13.0523 3.84035 12.5801 3.36816 11.9997 3.36816ZM11.7891 17.2629V19.3681H6.31545V17.2629H11.7891ZM11.7891 11.9691V12.0305L9.05225 13.3989L6.31537 12.0305V11.9691L9.05225 10.6007L11.7891 11.9691ZM11.7891 6.7366H9.05225H6.31545V4.63129H11.7891V6.7366Z" fill="#293AA4"/>
<path d="M14.3159 27.5785C14.3159 28.8554 15.3547 29.8943 16.6317 29.8943C17.9087 29.8943 18.9475 28.8554 18.9475 27.5785C18.9475 26.3016 17.9087 25.2627 16.6317 25.2627C15.3547 25.2627 14.3159 26.3016 14.3159 27.5785ZM17.6844 27.5785C17.6844 28.1589 17.2122 28.6311 16.6317 28.6311C16.0512 28.6311 15.579 28.1589 15.579 27.5785C15.579 26.998 16.0512 26.5258 16.6317 26.5258C17.2122 26.5258 17.6844 26.9981 17.6844 27.5785Z" fill="#293AA4"/>
</g>
<defs>
<clipPath id="clip0">
<rect width="40" height="40" fill="white"/>
</clipPath>
</defs>
</svg>
