<svg width="106" height="28" viewBox="0 0 106 28" fill="none" xmlns="http://www.w3.org/2000/svg">
<path d="M8.43497 17.3432H12.283V20.7842C12.283 22.8809 11.765 24.4965 10.729 25.6312C9.69297 26.7412 8.18831 27.2962 6.21497 27.2962C4.24164 27.2962 2.73697 26.7412 1.70097 25.6312C0.664973 24.4965 0.146973 22.8809 0.146973 20.7842V7.3162C0.146973 5.21953 0.664973 3.6162 1.70097 2.5062C2.73697 1.37153 4.24164 0.804199 6.21497 0.804199C8.18831 0.804199 9.69297 1.37153 10.729 2.5062C11.765 3.6162 12.283 5.21953 12.283 7.3162V9.8322H8.43497V7.0572C8.43497 5.3552 7.73197 4.5042 6.32597 4.5042C4.91997 4.5042 4.21697 5.3552 4.21697 7.0572V21.0432C4.21697 22.7205 4.91997 23.5592 6.32597 23.5592C7.73197 23.5592 8.43497 22.7205 8.43497 21.0432V17.3432Z" fill="#1D2872"/>
<path d="M23.7804 1.1002L27.9244 27.0002H23.8174L23.1144 22.3012H18.1194L17.4164 27.0002H13.6794L17.8234 1.1002H23.7804ZM20.5984 5.6882L18.6374 18.7862H22.5594L20.5984 5.6882Z" fill="#1D2872"/>
<path d="M35.4438 1.1002L38.4408 19.4892L41.2158 1.1002H46.8768V27.0002H43.0288V8.4262L40.2168 27.0002H36.3688L33.3348 8.6852V27.0002H29.7828V1.1002H35.4438Z" fill="#1D2872"/>
<path d="M57.7924 17.3432H61.6404V20.7842C61.6404 22.8809 61.1224 24.4965 60.0864 25.6312C59.0504 26.7412 57.5457 27.2962 55.5724 27.2962C53.5991 27.2962 52.0944 26.7412 51.0584 25.6312C50.0224 24.4965 49.5044 22.8809 49.5044 20.7842V7.3162C49.5044 5.21953 50.0224 3.6162 51.0584 2.5062C52.0944 1.37153 53.5991 0.804199 55.5724 0.804199C57.5457 0.804199 59.0504 1.37153 60.0864 2.5062C61.1224 3.6162 61.6404 5.21953 61.6404 7.3162V9.8322H57.7924V7.0572C57.7924 5.3552 57.0894 4.5042 55.6834 4.5042C54.2774 4.5042 53.5744 5.3552 53.5744 7.0572V21.0432C53.5744 22.7205 54.2774 23.5592 55.6834 23.5592C57.0894 23.5592 57.7924 22.7205 57.7924 21.0432V17.3432Z" fill="#1D2872"/>
<path d="M62.9259 4.8002V1.1002H75.5059V4.8002H71.2509V27.0002H67.1809V4.8002H62.9259Z" fill="#1D2872"/>
<path d="M86.3263 1.1002L90.4703 27.0002H86.3633L85.6603 22.3012H80.6653L79.9623 27.0002H76.2253L80.3693 1.1002H86.3263ZM83.1443 5.6882L81.1833 18.7862H85.1053L83.1443 5.6882Z" fill="#1D2872"/>
<path d="M91.2187 27.0372V23.3372C92.2054 23.3372 92.8591 23.1892 93.1797 22.8932C93.5251 22.5725 93.7101 21.8325 93.7347 20.6732L94.4007 1.1002H105.908V27.0002H101.764V4.8002H98.2117L97.7677 20.4512C97.6937 22.8192 97.2004 24.5089 96.2877 25.5202C95.375 26.5315 93.8951 27.0372 91.8477 27.0372H91.2187Z" fill="#1D2872"/>
</svg>
